<svg class="tracks" width="453" height="138" viewBox="0 0 453 138" xmlns="http://www.w3.org/2000/svg" xmlns:xlink="http://www.w3.org/1999/xlink">
<g transform="translate(.5 .5)">
<g>
<path d="M40 69h0"></path>
<path d="M20 59v20m0 -10h20"></path>
</g>
<path d="M40 69h10"></path>
<path d="M50 69h10"></path>
<g>
<path d="M60 69h0"></path>
<path d="M373 69h0"></path>
<path d="M60 69a10 10 0 0 0 10 -10v-29a10 10 0 0 1 10 -10"></path>
<g>
<path d="M80 20h273"></path>
</g>
<path d="M353 20a10 10 0 0 1 10 10v29a10 10 0 0 0 10 10"></path>
<path d="M60 69h20"></path>
<g>
<path d="M80 69h0"></path>
<path d="M353 69h0"></path>
<g>
<path d="M80 69h0"></path>
<path d="M245 69h0"></path>
<rect x="80" y="50" width="165" height="68" rx="10" ry="10" class="group-box"></rect>
<g>
<path d="M80 69h10"></path>
<path d="M235 69h10"></path>
<path d="M90 69h20"></path>
<g class="terminal">
<path d="M110 69h0"></path>
<path d="M215 69h0"></path>
<rect x="110" y="58" width="105" height="22" rx="10" ry="10"></rect>
<text x="162.5" y="73">sensuality</text>
</g>
<path d="M215 69h20"></path>
<path d="M90 69a10 10 0 0 1 10 10v10a10 10 0 0 0 10 10"></path>
<g class="terminal">
<path d="M110 99h21.25"></path>
<path d="M193.75 99h21.25"></path>
<rect x="131.25" y="88" width="62.5" height="22" rx="10" ry="10"></rect>
<text x="162.5" y="103">views</text>
</g>
<path d="M215 99a10 10 0 0 0 10 -10v-10a10 10 0 0 1 10 -10"></path>
</g>
<g class="comment">
<path d="M80 39h0"></path>
<path d="M174 39h0"></path>
<text x="127" y="44" class="comment">passion for:</text>
</g>
</g>
<path d="M245 69h10"></path>
<path d="M255 69h10"></path>
<g class="terminal">
<path d="M265 69h0"></path>
<path d="M353 69h0"></path>
<rect x="265" y="58" width="88" height="22" rx="10" ry="10"></rect>
<text x="309" y="73">disputes</text>
</g>
</g>
<path d="M353 69h20"></path>
</g>
<path d="M373 69h10"></path>
<path d="M383 69h10"></path>
<g>
<path d="M393 69h0"></path>
<path d="M 393 69 h 20 m 0 -10 v 20"></path>
</g>
</g>
<style>
svg.tracks {
	background-color: none;
}
svg.tracks path {
	stroke-width: 3;
	stroke: black;
	fill: rgba(0,0,0,0);
}
svg.tracks text {
	font: bold 14px monospace;
	text-anchor: middle;
	white-space: pre;
}
svg.tracks text.diagram-text {
	font-size: 12px;
}
svg.tracks text.diagram-arrow {
	font-size: 16px;
}
svg.tracks text.label {
	text-anchor: start;
}
svg.tracks text.comment {
	font: italic 12px monospace;
}
svg.tracks g.non-terminal text {
	/&#42;font-style: italic;&#42;/
}
svg.tracks rect {
	stroke-width: 3;
	stroke: black;
	fill: hsl(120,100%,90%);
}
svg.tracks rect.group-box {
	stroke: gray;
	stroke-dasharray: 10 5;
	fill: none;
}
svg.tracks path.diagram-text {
	stroke-width: 3;
	stroke: black;
	fill: white;
	cursor: help;
}
svg.tracks g.diagram-text:hover path.diagram-text {
	fill: #eee;
}</style>
</svg>
