<svg class="tracks" width="533.5" height="122" viewBox="0 0 533.5 122" xmlns="http://www.w3.org/2000/svg" xmlns:xlink="http://www.w3.org/1999/xlink">
<g transform="translate(.5 .5)">
<g>
<path d="M40 31h0"></path>
<path d="M20 21v20m0 -10h20"></path>
</g>
<path d="M40 31h10"></path>
<path d="M50 31h10"></path>
<g class="terminal">
<path d="M60 31h0"></path>
<path d="M250 31h0"></path>
<rect x="60" y="20" width="190" height="22" rx="10" ry="10"></rect>
<text x="155" y="35">admirable friendship</text>
</g>
<path d="M250 31h10"></path>
<path d="M260 31h10"></path>
<g>
<path d="M270 31h0"></path>
<path d="M453.5 31h0"></path>
<path d="M300 31h10"></path>
<g class="terminal">
<path d="M310 31h4.25"></path>
<path d="M419.25 31h4.25"></path>
<rect x="314.25" y="20" width="105" height="22" rx="10" ry="10"></rect>
<text x="366.75" y="35">conviction</text>
</g>
<path d="M423.5 31h10"></path>
<path d="M300 31v20a10 10 0 0 0 10 10"></path>
<g class="terminal">
<path d="M310 61h21.25"></path>
<path d="M402.25 61h21.25"></path>
<rect x="331.25" y="50" width="71" height="22" rx="10" ry="10"></rect>
<text x="366.75" y="65">virtue</text>
</g>
<path d="M423.5 61a10 10 0 0 0 10 -10v-20"></path>
<path d="M300 31v50a10 10 0 0 0 10 10"></path>
<g class="terminal">
<path d="M310 91h0"></path>
<path d="M423.5 91h0"></path>
<rect x="310" y="80" width="113.5" height="22" rx="10" ry="10"></rect>
<text x="366.75" y="95">discernment</text>
</g>
<path d="M423.5 91a10 10 0 0 0 10 -10v-50"></path>
<g class="diagram-text">
<title>take all branches, once each, in any order</title>
<path d="M 300 21 h -26 a 4 4 0 0 0 -4 4 v 12 a 4 4 0 0 0 4 4 h 26 z" class="diagram-text"></path>
<text x="285" y="35" class="diagram-text">all</text>
<path d="M 433.5 21 h 16 a 4 4 0 0 1 4 4 v 12 a 4 4 0 0 1 -4 4 h -16 z" class="diagram-text"></path>
<path d="M 440.5 29 a 4 4 0 1 0 6 -1 m 2.75 -1 h -4 v 4 m 0 -3 h 2" style="stroke-width: 1.75"></path>
</g>
</g>
<path d="M453.5 31h10"></path>
<path d="M463.5 31h10"></path>
<g>
<path d="M473.5 31h0"></path>
<path d="M 473.5 31 h 20 m 0 -10 v 20"></path>
</g>
</g>
<style>
svg.tracks {
	background-color: none;
}
svg.tracks path {
	stroke-width: 3;
	stroke: black;
	fill: rgba(0,0,0,0);
}
svg.tracks text {
	font: bold 14px monospace;
	text-anchor: middle;
	white-space: pre;
}
svg.tracks text.diagram-text {
	font-size: 12px;
}
svg.tracks text.diagram-arrow {
	font-size: 16px;
}
svg.tracks text.label {
	text-anchor: start;
}
svg.tracks text.comment {
	font: italic 12px monospace;
}
svg.tracks g.non-terminal text {
	/&#42;font-style: italic;&#42;/
}
svg.tracks rect {
	stroke-width: 3;
	stroke: black;
	fill: hsl(120,100%,90%);
}
svg.tracks rect.group-box {
	stroke: gray;
	stroke-dasharray: 10 5;
	fill: none;
}
svg.tracks path.diagram-text {
	stroke-width: 3;
	stroke: black;
	fill: white;
	cursor: help;
}
svg.tracks g.diagram-text:hover path.diagram-text {
	fill: #eee;
}</style>
</svg>
