<svg class="tracks" width="854" height="528" viewBox="0 0 854 528" xmlns="http://www.w3.org/2000/svg" xmlns:xlink="http://www.w3.org/1999/xlink">
<g transform="translate(.5 .5)">
<g>
<g>
<g>
<path d="M60 31h0"></path>
<path d="M40 21v20m0 -10h20"></path>
</g>
<path d="M60 31h10"></path>
<path d="M70 31h10"></path>
<g class="terminal">
<path d="M80 31h0"></path>
<path d="M329.5 31h0"></path>
<rect x="80" y="20" width="249.5" height="22" rx="10" ry="10"></rect>
<text x="204.75" y="35">prevents a gift being given</text>
</g>
<path d="M329.5 31h10"></path>
<path d="M339.5 31h10"></path>
<g>
<path d="M349.5 31h0"></path>
<path d="M754 31h0"></path>
<path d="M379.5 31h10"></path>
<g class="terminal">
<path d="M389.5 31h12.75"></path>
<path d="M711.25 31h12.75"></path>
<rect x="402.25" y="20" width="309" height="22" rx="10" ry="10"></rect>
<text x="556.75" y="35">obstruction of merit for the giver</text>
</g>
<path d="M724 31h10"></path>
<path d="M379.5 31v20a10 10 0 0 0 10 10"></path>
<g class="terminal">
<path d="M389.5 61h0"></path>
<path d="M724 61h0"></path>
<rect x="389.5" y="50" width="334.5" height="22" rx="10" ry="10"></rect>
<text x="556.75" y="65">obstruction of gain for the recipient</text>
</g>
<path d="M724 61a10 10 0 0 0 10 -10v-20"></path>
<path d="M379.5 31v50a10 10 0 0 0 10 10"></path>
<g class="terminal">
<path d="M389.5 91h21.25"></path>
<path d="M702.75 91h21.25"></path>
<rect x="410.75" y="80" width="292" height="22" rx="10" ry="10"></rect>
<text x="556.75" y="95">obstruction of merit for oneself</text>
</g>
<path d="M724 91a10 10 0 0 0 10 -10v-50"></path>
<g class="diagram-text">
<title>take all branches, once each, in any order</title>
<path d="M 379.5 21 h -26 a 4 4 0 0 0 -4 4 v 12 a 4 4 0 0 0 4 4 h 26 z" class="diagram-text"></path>
<text x="364.5" y="35" class="diagram-text">all</text>
<path d="M 734 21 h 16 a 4 4 0 0 1 4 4 v 12 a 4 4 0 0 1 -4 4 h -16 z" class="diagram-text"></path>
<path d="M 741 29 a 4 4 0 1 0 6 -1 m 2.75 -1 h -4 v 4 m 0 -3 h 2" style="stroke-width: 1.75"></path>
</g>
</g>
<path d="M754 31h10"></path>
<path d="M764 31h10"></path>
<g>
<path d="M774 31h0"></path>
<path d="M 774 31 h 20 m 0 -10 v 20"></path>
</g>
</g>
<g>
<g>
<path d="M101.25 121h0"></path>
<path d="M81.25 111v20m0 -10h20"></path>
</g>
<path d="M101.25 121h10"></path>
<path d="M111.25 121h10"></path>
<g>
<path d="M121.25 121h0"></path>
<path d="M579.25 121h0"></path>
<path d="M151.25 121h10"></path>
<g class="terminal">
<path d="M161.25 121h141.5"></path>
<path d="M407.75 121h141.5"></path>
<rect x="302.75" y="110" width="105" height="22" rx="10" ry="10"></rect>
<text x="355.25" y="125">gift given</text>
</g>
<path d="M549.25 121h10"></path>
<path d="M151.25 121v50a10 10 0 0 0 10 10"></path>
<g>
<path d="M161.25 181h35"></path>
<path d="M514.25 181h35"></path>
<rect x="196.25" y="162" width="318" height="158" rx="10" ry="10" class="group-box"></rect>
<g>
<path d="M196.25 181h20.5"></path>
<path d="M493.75 181h20.5"></path>
<path d="M246.75 181h10"></path>
<g class="terminal">
<path d="M256.75 181h34"></path>
<path d="M429.75 181h34"></path>
<rect x="290.75" y="170" width="139" height="22" rx="10" ry="10"></rect>
<text x="360.25" y="185">sensual desire</text>
</g>
<path d="M463.75 181h10"></path>
<path d="M246.75 181v20a10 10 0 0 0 10 10"></path>
<g class="terminal">
<path d="M256.75 211h59.5"></path>
<path d="M404.25 211h59.5"></path>
<rect x="316.25" y="200" width="88" height="22" rx="10" ry="10"></rect>
<text x="360.25" y="215">ill will</text>
</g>
<path d="M463.75 211a10 10 0 0 0 10 -10v-20"></path>
<path d="M246.75 181v50a10 10 0 0 0 10 10"></path>
<g class="terminal">
<path d="M256.75 241h17"></path>
<path d="M446.75 241h17"></path>
<rect x="273.75" y="230" width="173" height="22" rx="10" ry="10"></rect>
<text x="360.25" y="245">sloth &#38; drowsiness</text>
</g>
<path d="M463.75 241a10 10 0 0 0 10 -10v-50"></path>
<path d="M246.75 181v80a10 10 0 0 0 10 10"></path>
<g class="terminal">
<path d="M256.75 271h0"></path>
<path d="M463.75 271h0"></path>
<rect x="256.75" y="260" width="207" height="22" rx="10" ry="10"></rect>
<text x="360.25" y="275">restlessness &#38; anxiety</text>
</g>
<path d="M463.75 271a10 10 0 0 0 10 -10v-80"></path>
<path d="M246.75 181v110a10 10 0 0 0 10 10"></path>
<g class="terminal">
<path d="M256.75 301h46.75"></path>
<path d="M417 301h46.75"></path>
<rect x="303.5" y="290" width="113.5" height="22" rx="10" ry="10"></rect>
<text x="360.25" y="305">uncertainty</text>
</g>
<path d="M463.75 301a10 10 0 0 0 10 -10v-110"></path>
<g class="diagram-text">
<title>take all branches, once each, in any order</title>
<path d="M 246.75 171 h -26 a 4 4 0 0 0 -4 4 v 12 a 4 4 0 0 0 4 4 h 26 z" class="diagram-text"></path>
<text x="231.75" y="185" class="diagram-text">all</text>
<path d="M 473.75 171 h 16 a 4 4 0 0 1 4 4 v 12 a 4 4 0 0 1 -4 4 h -16 z" class="diagram-text"></path>
<path d="M 480.75 179 a 4 4 0 1 0 6 -1 m 2.75 -1 h -4 v 4 m 0 -3 h 2" style="stroke-width: 1.75"></path>
</g>
</g>
<g class="comment">
<path d="M196.25 151h0"></path>
<path d="M514.25 151h0"></path>
<text x="355.25" y="156" class="comment">recipient has abandoned the five hindrances:</text>
</g>
</g>
<path d="M549.25 181a10 10 0 0 0 10 -10v-50"></path>
<path d="M151.25 121v238a10 10 0 0 0 10 10"></path>
<g>
<path d="M161.25 369h0"></path>
<path d="M549.25 369h0"></path>
<rect x="161.25" y="350" width="388" height="158" rx="10" ry="10" class="group-box"></rect>
<g>
<path d="M161.25 369h25.75"></path>
<path d="M523.5 369h25.75"></path>
<path d="M217 369h10"></path>
<g class="terminal">
<path d="M227 369h97.75"></path>
<path d="M395.75 369h97.75"></path>
<rect x="324.75" y="358" width="71" height="22" rx="10" ry="10"></rect>
<text x="360.25" y="373">virtue</text>
</g>
<path d="M493.5 369h10"></path>
<path d="M217 369v20a10 10 0 0 0 10 10"></path>
<g class="terminal">
<path d="M227 399h68"></path>
<path d="M425.5 399h68"></path>
<rect x="295" y="388" width="130.5" height="22" rx="10" ry="10"></rect>
<text x="360.25" y="403">concentration</text>
</g>
<path d="M493.5 399a10 10 0 0 0 10 -10v-20"></path>
<path d="M217 369v50a10 10 0 0 0 10 10"></path>
<g class="terminal">
<path d="M227 429h76.5"></path>
<path d="M417 429h76.5"></path>
<rect x="303.5" y="418" width="113.5" height="22" rx="10" ry="10"></rect>
<text x="360.25" y="433">discernment</text>
</g>
<path d="M493.5 429a10 10 0 0 0 10 -10v-50"></path>
<path d="M217 369v80a10 10 0 0 0 10 10"></path>
<g class="terminal">
<path d="M227 459h93.5"></path>
<path d="M400 459h93.5"></path>
<rect x="320.5" y="448" width="79.5" height="22" rx="10" ry="10"></rect>
<text x="360.25" y="463">release</text>
</g>
<path d="M493.5 459a10 10 0 0 0 10 -10v-80"></path>
<path d="M217 369v110a10 10 0 0 0 10 10"></path>
<g class="terminal">
<path d="M227 489h0"></path>
<path d="M493.5 489h0"></path>
<rect x="227" y="478" width="266.5" height="22" rx="10" ry="10"></rect>
<text x="360.25" y="493">knowledge &#38; vision of release</text>
</g>
<path d="M493.5 489a10 10 0 0 0 10 -10v-110"></path>
<g class="diagram-text">
<title>take all branches, once each, in any order</title>
<path d="M 217 359 h -26 a 4 4 0 0 0 -4 4 v 12 a 4 4 0 0 0 4 4 h 26 z" class="diagram-text"></path>
<text x="202" y="373" class="diagram-text">all</text>
<path d="M 503.5 359 h 16 a 4 4 0 0 1 4 4 v 12 a 4 4 0 0 1 -4 4 h -16 z" class="diagram-text"></path>
<path d="M 510.5 367 a 4 4 0 1 0 6 -1 m 2.75 -1 h -4 v 4 m 0 -3 h 2" style="stroke-width: 1.75"></path>
</g>
</g>
<g class="comment">
<path d="M161.25 339h0"></path>
<path d="M549.25 339h0"></path>
<text x="355.25" y="344" class="comment">recipient is endowed with no fetters &#38; consumation in:</text>
</g>
</g>
<path d="M549.25 369a10 10 0 0 0 10 -10v-238"></path>
<g class="diagram-text">
<title>take all branches, once each, in any order</title>
<path d="M 151.25 111 h -26 a 4 4 0 0 0 -4 4 v 12 a 4 4 0 0 0 4 4 h 26 z" class="diagram-text"></path>
<text x="136.25" y="125" class="diagram-text">all</text>
<path d="M 559.25 111 h 16 a 4 4 0 0 1 4 4 v 12 a 4 4 0 0 1 -4 4 h -16 z" class="diagram-text"></path>
<path d="M 566.25 119 a 4 4 0 1 0 6 -1 m 2.75 -1 h -4 v 4 m 0 -3 h 2" style="stroke-width: 1.75"></path>
</g>
</g>
<path d="M579.25 121h10"></path>
<path d="M589.25 121h10"></path>
<g class="terminal">
<path d="M599.25 121h0"></path>
<path d="M712.75 121h0"></path>
<rect x="599.25" y="110" width="113.5" height="22" rx="10" ry="10"></rect>
<text x="656" y="125">great fruit</text>
</g>
<path d="M712.75 121h10"></path>
<path d="M722.75 121h10"></path>
<g>
<path d="M732.75 121h0"></path>
<path d="M 732.75 121 h 20 m 0 -10 v 20"></path>
</g>
</g>
</g>
</g>
<style>
svg.tracks {
	background-color: none;
}
svg.tracks path {
	stroke-width: 3;
	stroke: black;
	fill: rgba(0,0,0,0);
}
svg.tracks text {
	font: bold 14px monospace;
	text-anchor: middle;
	white-space: pre;
}
svg.tracks text.diagram-text {
	font-size: 12px;
}
svg.tracks text.diagram-arrow {
	font-size: 16px;
}
svg.tracks text.label {
	text-anchor: start;
}
svg.tracks text.comment {
	font: italic 12px monospace;
}
svg.tracks g.non-terminal text {
	/&#42;font-style: italic;&#42;/
}
svg.tracks rect {
	stroke-width: 3;
	stroke: black;
	fill: hsl(120,100%,90%);
}
svg.tracks rect.group-box {
	stroke: gray;
	stroke-dasharray: 10 5;
	fill: none;
}
svg.tracks path.diagram-text {
	stroke-width: 3;
	stroke: black;
	fill: white;
	cursor: help;
}
svg.tracks g.diagram-text:hover path.diagram-text {
	fill: #eee;
}</style>
</svg>
