<svg class="tracks" width="853.5" height="160" viewBox="0 0 853.5 160" xmlns="http://www.w3.org/2000/svg" xmlns:xlink="http://www.w3.org/1999/xlink">
<g transform="translate(.5 .5)">
<g>
<path d="M40 61h0"></path>
<path d="M20 51v20m0 -10h20"></path>
</g>
<path d="M40 61h10"></path>
<path d="M50 61h10"></path>
<g>
<path d="M60 61h0"></path>
<path d="M221 61h0"></path>
<rect x="60" y="42" width="161" height="98" rx="10" ry="10" class="group-box"></rect>
<g>
<path d="M60 61h10"></path>
<path d="M211 61h10"></path>
<path d="M100 61h10"></path>
<g class="terminal">
<path d="M110 61h4.25"></path>
<path d="M176.75 61h4.25"></path>
<rect x="114.25" y="50" width="62.5" height="22" rx="10" ry="10"></rect>
<text x="145.5" y="65">youth</text>
</g>
<path d="M181 61h10"></path>
<path d="M100 61v20a10 10 0 0 0 10 10"></path>
<g class="terminal">
<path d="M110 91h0"></path>
<path d="M181 91h0"></path>
<rect x="110" y="80" width="71" height="22" rx="10" ry="10"></rect>
<text x="145.5" y="95">health</text>
</g>
<path d="M181 91a10 10 0 0 0 10 -10v-20"></path>
<path d="M100 61v50a10 10 0 0 0 10 10"></path>
<g class="terminal">
<path d="M110 121h8.5"></path>
<path d="M172.5 121h8.5"></path>
<rect x="118.5" y="110" width="54" height="22" rx="10" ry="10"></rect>
<text x="145.5" y="125">life</text>
</g>
<path d="M181 121a10 10 0 0 0 10 -10v-50"></path>
<g class="diagram-text">
<title>take one or more branches, once each, in any order</title>
<path d="M 100 51 h -26 a 4 4 0 0 0 -4 4 v 12 a 4 4 0 0 0 4 4 h 26 z" class="diagram-text"></path>
<text x="85" y="65" class="diagram-text">1+</text>
<path d="M 191 51 h 16 a 4 4 0 0 1 4 4 v 12 a 4 4 0 0 1 -4 4 h -16 z" class="diagram-text"></path>
<path d="M 198 59 a 4 4 0 1 0 6 -1 m 2.75 -1 h -4 v 4 m 0 -3 h 2" style="stroke-width: 1.75"></path>
</g>
</g>
<g class="comment">
<path d="M60 31h0"></path>
<path d="M189 31h0"></path>
<text x="124.5" y="36" class="comment">intoxicated with:</text>
</g>
</g>
<path d="M221 61h10"></path>
<path d="M231 61h10"></path>
<g>
<path d="M241 61h0"></path>
<path d="M475.5 61h0"></path>
<path d="M271 61h10"></path>
<g class="terminal">
<path d="M281 61h0"></path>
<path d="M445.5 61h0"></path>
<rect x="281" y="50" width="164.5" height="22" rx="10" ry="10"></rect>
<text x="363.25" y="65">bodily misconduct</text>
</g>
<path d="M445.5 61h10"></path>
<path d="M271 61v20a10 10 0 0 0 10 10"></path>
<g class="terminal">
<path d="M281 91h0"></path>
<path d="M445.5 91h0"></path>
<rect x="281" y="80" width="164.5" height="22" rx="10" ry="10"></rect>
<text x="363.25" y="95">verbal misconduct</text>
</g>
<path d="M445.5 91a10 10 0 0 0 10 -10v-20"></path>
<path d="M271 61v50a10 10 0 0 0 10 10"></path>
<g class="terminal">
<path d="M281 121h0"></path>
<path d="M445.5 121h0"></path>
<rect x="281" y="110" width="164.5" height="22" rx="10" ry="10"></rect>
<text x="363.25" y="125">mental misconduct</text>
</g>
<path d="M445.5 121a10 10 0 0 0 10 -10v-50"></path>
<g class="diagram-text">
<title>take one or more branches, once each, in any order</title>
<path d="M 271 51 h -26 a 4 4 0 0 0 -4 4 v 12 a 4 4 0 0 0 4 4 h 26 z" class="diagram-text"></path>
<text x="256" y="65" class="diagram-text">1+</text>
<path d="M 455.5 51 h 16 a 4 4 0 0 1 4 4 v 12 a 4 4 0 0 1 -4 4 h -16 z" class="diagram-text"></path>
<path d="M 462.5 59 a 4 4 0 1 0 6 -1 m 2.75 -1 h -4 v 4 m 0 -3 h 2" style="stroke-width: 1.75"></path>
</g>
</g>
<path d="M475.5 61h10"></path>
<path d="M485.5 61h10"></path>
<g>
<path d="M495.5 61h0"></path>
<path d="M773.5 61h0"></path>
<rect x="495.5" y="42" width="278" height="38" rx="10" ry="10" class="group-box"></rect>
<g class="terminal">
<path d="M495.5 61h10"></path>
<path d="M763.5 61h10"></path>
<rect x="505.5" y="50" width="258" height="22" rx="10" ry="10"></rect>
<text x="634.5" y="65">reappears in the lower realm</text>
</g>
<g class="comment">
<path d="M495.5 31h0"></path>
<path d="M582.5 31h0"></path>
<text x="539" y="36" class="comment">after death</text>
</g>
</g>
<path d="M773.5 61h10"></path>
<path d="M783.5 61h10"></path>
<g>
<path d="M793.5 61h0"></path>
<path d="M 793.5 61 h 20 m 0 -10 v 20"></path>
</g>
</g>
<style>
svg.tracks {
	background-color: none;
}
svg.tracks path {
	stroke-width: 3;
	stroke: black;
	fill: rgba(0,0,0,0);
}
svg.tracks text {
	font: bold 14px monospace;
	text-anchor: middle;
	white-space: pre;
}
svg.tracks text.diagram-text {
	font-size: 12px;
}
svg.tracks text.diagram-arrow {
	font-size: 16px;
}
svg.tracks text.label {
	text-anchor: start;
}
svg.tracks text.comment {
	font: italic 12px monospace;
}
svg.tracks g.non-terminal text {
	/&#42;font-style: italic;&#42;/
}
svg.tracks rect {
	stroke-width: 3;
	stroke: black;
	fill: hsl(120,100%,90%);
}
svg.tracks rect.group-box {
	stroke: gray;
	stroke-dasharray: 10 5;
	fill: none;
}
svg.tracks path.diagram-text {
	stroke-width: 3;
	stroke: black;
	fill: white;
	cursor: help;
}
svg.tracks g.diagram-text:hover path.diagram-text {
	fill: #eee;
}</style>
</svg>
