<svg class="tracks" width="1206" height="212" viewBox="0 0 1206 212" xmlns="http://www.w3.org/2000/svg" xmlns:xlink="http://www.w3.org/1999/xlink">
<g transform="translate(.5 .5)">
<g>
<path d="M40 31h0"></path>
<path d="M20 21v20m0 -10h20"></path>
</g>
<path d="M40 31h10"></path>
<path d="M50 31h10"></path>
<g>
<path d="M60 31h0"></path>
<path d="M1126 31h0"></path>
<path d="M60 31h20"></path>
<g>
<path d="M80 31h0"></path>
<path d="M1106 31h0"></path>
<g class="terminal">
<path d="M80 31h0"></path>
<path d="M176.5 31h0"></path>
<rect x="80" y="20" width="96.5" height="22" rx="10" ry="10"></rect>
<text x="128.25" y="35">pure mind</text>
</g>
<path d="M176.5 31h10"></path>
<path d="M186.5 31h10"></path>
<g>
<path d="M196.5 31h0"></path>
<path d="M516 31h0"></path>
<path d="M226.5 31h10"></path>
<g class="terminal">
<path d="M236.5 31h25.5"></path>
<path d="M460.5 31h25.5"></path>
<rect x="262" y="20" width="198.5" height="22" rx="10" ry="10"></rect>
<text x="361.25" y="35">knows his own benefit</text>
</g>
<path d="M486 31h10"></path>
<path d="M226.5 31v20a10 10 0 0 0 10 10"></path>
<g class="terminal">
<path d="M236.5 61h0"></path>
<path d="M486 61h0"></path>
<rect x="236.5" y="50" width="249.5" height="22" rx="10" ry="10"></rect>
<text x="361.25" y="65">knows the benefit of others</text>
</g>
<path d="M486 61a10 10 0 0 0 10 -10v-20"></path>
<path d="M226.5 31v50a10 10 0 0 0 10 10"></path>
<g class="terminal">
<path d="M236.5 91h8.5"></path>
<path d="M477.5 91h8.5"></path>
<rect x="245" y="80" width="232.5" height="22" rx="10" ry="10"></rect>
<text x="361.25" y="95">knows the benefit of both</text>
</g>
<path d="M486 91a10 10 0 0 0 10 -10v-50"></path>
<g class="diagram-text">
<title>take all branches, once each, in any order</title>
<path d="M 226.5 21 h -26 a 4 4 0 0 0 -4 4 v 12 a 4 4 0 0 0 4 4 h 26 z" class="diagram-text"></path>
<text x="211.5" y="35" class="diagram-text">all</text>
<path d="M 496 21 h 16 a 4 4 0 0 1 4 4 v 12 a 4 4 0 0 1 -4 4 h -16 z" class="diagram-text"></path>
<path d="M 503 29 a 4 4 0 1 0 6 -1 m 2.75 -1 h -4 v 4 m 0 -3 h 2" style="stroke-width: 1.75"></path>
</g>
</g>
<path d="M516 31h10"></path>
<path d="M526 31h10"></path>
<g class="terminal">
<path d="M536 31h0"></path>
<path d="M785.5 31h0"></path>
<rect x="536" y="20" width="249.5" height="22" rx="10" ry="10"></rect>
<text x="660.75" y="35">realises a noble attainment</text>
</g>
<path d="M785.5 31h10"></path>
<path d="M795.5 31h10"></path>
<g class="terminal">
<path d="M805.5 31h0"></path>
<path d="M1106 31h0"></path>
<rect x="805.5" y="20" width="300.5" height="22" rx="10" ry="10"></rect>
<text x="955.75" y="35">acquires noble knowledge &#38; vision</text>
</g>
</g>
<path d="M1106 31h20"></path>
<path d="M60 31a10 10 0 0 1 10 10v70a10 10 0 0 0 10 10"></path>
<g>
<path d="M80 121h261"></path>
<path d="M845 121h261"></path>
<g class="terminal">
<path d="M341 121h0"></path>
<path d="M454.5 121h0"></path>
<rect x="341" y="110" width="113.5" height="22" rx="10" ry="10"></rect>
<text x="397.75" y="125">impure mind</text>
</g>
<path d="M454.5 121h10"></path>
<path d="M464.5 121h10"></path>
<g>
<path d="M474.5 121h0"></path>
<path d="M845 121h0"></path>
<path d="M504.5 121h10"></path>
<g class="terminal">
<path d="M514.5 121h25.5"></path>
<path d="M789.5 121h25.5"></path>
<rect x="540" y="110" width="249.5" height="22" rx="10" ry="10"></rect>
<text x="664.75" y="125">not knowing his own benefit</text>
</g>
<path d="M815 121h10"></path>
<path d="M504.5 121v20a10 10 0 0 0 10 10"></path>
<g class="terminal">
<path d="M514.5 151h0"></path>
<path d="M815 151h0"></path>
<rect x="514.5" y="140" width="300.5" height="22" rx="10" ry="10"></rect>
<text x="664.75" y="155">not knowing the benefit of others</text>
</g>
<path d="M815 151a10 10 0 0 0 10 -10v-20"></path>
<path d="M504.5 121v50a10 10 0 0 0 10 10"></path>
<g class="terminal">
<path d="M514.5 181h8.5"></path>
<path d="M806.5 181h8.5"></path>
<rect x="523" y="170" width="283.5" height="22" rx="10" ry="10"></rect>
<text x="664.75" y="185">not knowing the benefit of both</text>
</g>
<path d="M815 181a10 10 0 0 0 10 -10v-50"></path>
<g class="diagram-text">
<title>take all branches, once each, in any order</title>
<path d="M 504.5 111 h -26 a 4 4 0 0 0 -4 4 v 12 a 4 4 0 0 0 4 4 h 26 z" class="diagram-text"></path>
<text x="489.5" y="125" class="diagram-text">all</text>
<path d="M 825 111 h 16 a 4 4 0 0 1 4 4 v 12 a 4 4 0 0 1 -4 4 h -16 z" class="diagram-text"></path>
<path d="M 832 119 a 4 4 0 1 0 6 -1 m 2.75 -1 h -4 v 4 m 0 -3 h 2" style="stroke-width: 1.75"></path>
</g>
</g>
</g>
<path d="M1106 121a10 10 0 0 0 10 -10v-70a10 10 0 0 1 10 -10"></path>
</g>
<path d="M1126 31h10"></path>
<path d="M1136 31h10"></path>
<g>
<path d="M1146 31h0"></path>
<path d="M 1146 31 h 20 m 0 -10 v 20"></path>
</g>
</g>
<style>
svg.tracks {
	background-color: none;
}
svg.tracks path {
	stroke-width: 3;
	stroke: black;
	fill: rgba(0,0,0,0);
}
svg.tracks text {
	font: bold 14px monospace;
	text-anchor: middle;
	white-space: pre;
}
svg.tracks text.diagram-text {
	font-size: 12px;
}
svg.tracks text.diagram-arrow {
	font-size: 16px;
}
svg.tracks text.label {
	text-anchor: start;
}
svg.tracks text.comment {
	font: italic 12px monospace;
}
svg.tracks g.non-terminal text {
	/&#42;font-style: italic;&#42;/
}
svg.tracks rect {
	stroke-width: 3;
	stroke: black;
	fill: hsl(120,100%,90%);
}
svg.tracks rect.group-box {
	stroke: gray;
	stroke-dasharray: 10 5;
	fill: none;
}
svg.tracks path.diagram-text {
	stroke-width: 3;
	stroke: black;
	fill: white;
	cursor: help;
}
svg.tracks g.diagram-text:hover path.diagram-text {
	fill: #eee;
}</style>
</svg>
