<svg class="tracks" width="483" height="288" viewBox="0 0 483 288" xmlns="http://www.w3.org/2000/svg" xmlns:xlink="http://www.w3.org/1999/xlink">
<g transform="translate(.5 .5)">
<g>
<path d="M40 61h0"></path>
<path d="M20 51v20m0 -10h20"></path>
</g>
<path d="M40 61h10"></path>
<path d="M50 61h10"></path>
<g>
<path d="M60 61h0"></path>
<path d="M403 61h0"></path>
<path d="M60 61h20"></path>
<g>
<path d="M80 61h0"></path>
<path d="M383 61h0"></path>
<g>
<path d="M80 61h0"></path>
<path d="M292 61h0"></path>
<rect x="80" y="42" width="212" height="98" rx="10" ry="10" class="group-box"></rect>
<g>
<path d="M80 61h10"></path>
<path d="M282 61h10"></path>
<path d="M120 61h10"></path>
<g class="terminal">
<path d="M130 61h21.25"></path>
<path d="M230.75 61h21.25"></path>
<rect x="151.25" y="50" width="79.5" height="22" rx="10" ry="10"></rect>
<text x="191" y="65">arising</text>
</g>
<path d="M252 61h10"></path>
<path d="M120 61v20a10 10 0 0 0 10 10"></path>
<g class="terminal">
<path d="M130 91h0"></path>
<path d="M252 91h0"></path>
<rect x="130" y="80" width="122" height="22" rx="10" ry="10"></rect>
<text x="191" y="95">passing away</text>
</g>
<path d="M252 91a10 10 0 0 0 10 -10v-20"></path>
<path d="M120 61v50a10 10 0 0 0 10 10"></path>
<g class="terminal">
<path d="M130 121h8.5"></path>
<path d="M243.5 121h8.5"></path>
<rect x="138.5" y="110" width="105" height="22" rx="10" ry="10"></rect>
<text x="191" y="125">alteration</text>
</g>
<path d="M252 121a10 10 0 0 0 10 -10v-50"></path>
<g class="diagram-text">
<title>take one or more branches, once each, in any order</title>
<path d="M 120 51 h -26 a 4 4 0 0 0 -4 4 v 12 a 4 4 0 0 0 4 4 h 26 z" class="diagram-text"></path>
<text x="105" y="65" class="diagram-text">1+</text>
<path d="M 262 51 h 16 a 4 4 0 0 1 4 4 v 12 a 4 4 0 0 1 -4 4 h -16 z" class="diagram-text"></path>
<path d="M 269 59 a 4 4 0 1 0 6 -1 m 2.75 -1 h -4 v 4 m 0 -3 h 2" style="stroke-width: 1.75"></path>
</g>
</g>
<g class="comment">
<path d="M80 31h0"></path>
<path d="M258 31h0"></path>
<text x="169" y="36" class="comment">fabricated discerned as:</text>
</g>
</g>
<path d="M292 61h10"></path>
<path d="M302 61h10"></path>
<g class="terminal">
<path d="M312 61h0"></path>
<path d="M383 61h0"></path>
<rect x="312" y="50" width="71" height="22" rx="10" ry="10"></rect>
<text x="347.5" y="65">stress</text>
</g>
</g>
<path d="M383 61h20"></path>
<path d="M60 61a10 10 0 0 1 10 10v108a10 10 0 0 0 10 10"></path>
<g>
<path d="M80 189h32.75"></path>
<path d="M350.25 189h32.75"></path>
<rect x="112.75" y="170" width="237.5" height="98" rx="10" ry="10" class="group-box"></rect>
<g>
<path d="M112.75 189h10"></path>
<path d="M340.25 189h10"></path>
<path d="M152.75 189h10"></path>
<g class="terminal">
<path d="M162.75 189h21.25"></path>
<path d="M289 189h21.25"></path>
<rect x="184" y="178" width="105" height="22" rx="10" ry="10"></rect>
<text x="236.5" y="193">no arising</text>
</g>
<path d="M310.25 189h10"></path>
<path d="M152.75 189v20a10 10 0 0 0 10 10"></path>
<g class="terminal">
<path d="M162.75 219h0"></path>
<path d="M310.25 219h0"></path>
<rect x="162.75" y="208" width="147.5" height="22" rx="10" ry="10"></rect>
<text x="236.5" y="223">no passing away</text>
</g>
<path d="M310.25 219a10 10 0 0 0 10 -10v-20"></path>
<path d="M152.75 189v50a10 10 0 0 0 10 10"></path>
<g class="terminal">
<path d="M162.75 249h8.5"></path>
<path d="M301.75 249h8.5"></path>
<rect x="171.25" y="238" width="130.5" height="22" rx="10" ry="10"></rect>
<text x="236.5" y="253">no alteration</text>
</g>
<path d="M310.25 249a10 10 0 0 0 10 -10v-50"></path>
<g class="diagram-text">
<title>take one or more branches, once each, in any order</title>
<path d="M 152.75 179 h -26 a 4 4 0 0 0 -4 4 v 12 a 4 4 0 0 0 4 4 h 26 z" class="diagram-text"></path>
<text x="137.75" y="193" class="diagram-text">1+</text>
<path d="M 320.25 179 h 16 a 4 4 0 0 1 4 4 v 12 a 4 4 0 0 1 -4 4 h -16 z" class="diagram-text"></path>
<path d="M 327.25 187 a 4 4 0 1 0 6 -1 m 2.75 -1 h -4 v 4 m 0 -3 h 2" style="stroke-width: 1.75"></path>
</g>
</g>
<g class="comment">
<path d="M112.75 159h0"></path>
<path d="M304.75 159h0"></path>
<text x="208.75" y="164" class="comment">unfabricated discerned as:</text>
</g>
</g>
<path d="M383 189a10 10 0 0 0 10 -10v-108a10 10 0 0 1 10 -10"></path>
</g>
<path d="M403 61h10"></path>
<path d="M413 61h10"></path>
<g>
<path d="M423 61h0"></path>
<path d="M 423 61 h 20 m 0 -10 v 20"></path>
</g>
</g>
<style>
svg.tracks {
	background-color: none;
}
svg.tracks path {
	stroke-width: 3;
	stroke: black;
	fill: rgba(0,0,0,0);
}
svg.tracks text {
	font: bold 14px monospace;
	text-anchor: middle;
	white-space: pre;
}
svg.tracks text.diagram-text {
	font-size: 12px;
}
svg.tracks text.diagram-arrow {
	font-size: 16px;
}
svg.tracks text.label {
	text-anchor: start;
}
svg.tracks text.comment {
	font: italic 12px monospace;
}
svg.tracks g.non-terminal text {
	/&#42;font-style: italic;&#42;/
}
svg.tracks rect {
	stroke-width: 3;
	stroke: black;
	fill: hsl(120,100%,90%);
}
svg.tracks rect.group-box {
	stroke: gray;
	stroke-dasharray: 10 5;
	fill: none;
}
svg.tracks path.diagram-text {
	stroke-width: 3;
	stroke: black;
	fill: white;
	cursor: help;
}
svg.tracks g.diagram-text:hover path.diagram-text {
	fill: #eee;
}</style>
</svg>
