<svg class="tracks" width="970.5" height="171" viewBox="0 0 970.5 171" xmlns="http://www.w3.org/2000/svg" xmlns:xlink="http://www.w3.org/1999/xlink">
<g transform="translate(.5 .5)">
<g>
<path d="M40 30h0"></path>
<path d="M20 20v20m0 -10h20"></path>
</g>
<path d="M40 30h10"></path>
<path d="M50 30h10"></path>
<g>
<path d="M60 30h0"></path>
<path d="M890.5 30h0"></path>
<path d="M60 30h20"></path>
<g>
<path d="M80 30h790.5"></path>
</g>
<path d="M870.5 30h20"></path>
<path d="M60 30a10 10 0 0 1 10 10v0a10 10 0 0 0 10 10"></path>
<g>
<path d="M80 50h0"></path>
<path d="M870.5 50h0"></path>
<path d="M80 50h20"></path>
<g>
<path d="M100 50h0"></path>
<path d="M850.5 50h0"></path>
<g>
<path d="M100 50h0"></path>
<path d="M776.5 50h0"></path>
<path d="M130 50h10"></path>
<g class="terminal">
<path d="M140 50h89.25"></path>
<path d="M657.25 50h89.25"></path>
<rect x="229.25" y="39" width="428" height="22" rx="10" ry="10"></rect>
<text x="443.25" y="54">doesn't see his transgression as a transgression</text>
</g>
<path d="M746.5 50h10"></path>
<path d="M130 50v20a10 10 0 0 0 10 10"></path>
<g class="terminal">
<path d="M140 80h0"></path>
<path d="M746.5 80h0"></path>
<rect x="140" y="69" width="606.5" height="22" rx="10" ry="10"></rect>
<text x="443.25" y="84">doesn't rightfully pardon another who has confessed his transgression</text>
</g>
<path d="M746.5 80a10 10 0 0 0 10 -10v-20"></path>
<g class="diagram-text">
<title>take one or more branches, once each, in any order</title>
<path d="M 130 40 h -26 a 4 4 0 0 0 -4 4 v 12 a 4 4 0 0 0 4 4 h 26 z" class="diagram-text"></path>
<text x="115" y="54" class="diagram-text">1+</text>
<path d="M 756.5 40 h 16 a 4 4 0 0 1 4 4 v 12 a 4 4 0 0 1 -4 4 h -16 z" class="diagram-text"></path>
<path d="M 763.5 48 a 4 4 0 1 0 6 -1 m 2.75 -1 h -4 v 4 m 0 -3 h 2" style="stroke-width: 1.75"></path>
</g>
</g>
<path d="M776.5 50h10"></path>
<path d="M786.5 50h10"></path>
<g class="terminal">
<path d="M796.5 50h0"></path>
<path d="M850.5 50h0"></path>
<rect x="796.5" y="39" width="54" height="22" rx="10" ry="10"></rect>
<text x="823.5" y="54">fool</text>
</g>
</g>
<path d="M850.5 50h20"></path>
<path d="M80 50a10 10 0 0 1 10 10v40a10 10 0 0 0 10 10"></path>
<g>
<path d="M100 110h34"></path>
<path d="M816.5 110h34"></path>
<g>
<path d="M134 110h0"></path>
<path d="M742.5 110h0"></path>
<path d="M164 110h10"></path>
<g class="terminal">
<path d="M174 110h85"></path>
<path d="M627.5 110h85"></path>
<rect x="259" y="99" width="368.5" height="22" rx="10" ry="10"></rect>
<text x="443.25" y="114">sees his transgression as a transgression</text>
</g>
<path d="M712.5 110h10"></path>
<path d="M164 110v20a10 10 0 0 0 10 10"></path>
<g class="terminal">
<path d="M174 140h0"></path>
<path d="M712.5 140h0"></path>
<rect x="174" y="129" width="538.5" height="22" rx="10" ry="10"></rect>
<text x="443.25" y="144">rightfully pardon another who has confessed his transgression</text>
</g>
<path d="M712.5 140a10 10 0 0 0 10 -10v-20"></path>
<g class="diagram-text">
<title>take one or more branches, once each, in any order</title>
<path d="M 164 100 h -26 a 4 4 0 0 0 -4 4 v 12 a 4 4 0 0 0 4 4 h 26 z" class="diagram-text"></path>
<text x="149" y="114" class="diagram-text">1+</text>
<path d="M 722.5 100 h 16 a 4 4 0 0 1 4 4 v 12 a 4 4 0 0 1 -4 4 h -16 z" class="diagram-text"></path>
<path d="M 729.5 108 a 4 4 0 1 0 6 -1 m 2.75 -1 h -4 v 4 m 0 -3 h 2" style="stroke-width: 1.75"></path>
</g>
</g>
<path d="M742.5 110h10"></path>
<path d="M752.5 110h10"></path>
<g class="terminal">
<path d="M762.5 110h0"></path>
<path d="M816.5 110h0"></path>
<rect x="762.5" y="99" width="54" height="22" rx="10" ry="10"></rect>
<text x="789.5" y="114">wise</text>
</g>
</g>
<path d="M850.5 110a10 10 0 0 0 10 -10v-40a10 10 0 0 1 10 -10"></path>
</g>
<path d="M870.5 50a10 10 0 0 0 10 -10v0a10 10 0 0 1 10 -10"></path>
</g>
<path d="M890.5 30h10"></path>
<path d="M900.5 30h10"></path>
<g>
<path d="M910.5 30h0"></path>
<path d="M 910.5 30 h 20 m 0 -10 v 20"></path>
</g>
</g>
<style>
svg.tracks {
	background-color: none;
}
svg.tracks path {
	stroke-width: 3;
	stroke: black;
	fill: rgba(0,0,0,0);
}
svg.tracks text {
	font: bold 14px monospace;
	text-anchor: middle;
	white-space: pre;
}
svg.tracks text.diagram-text {
	font-size: 12px;
}
svg.tracks text.diagram-arrow {
	font-size: 16px;
}
svg.tracks text.label {
	text-anchor: start;
}
svg.tracks text.comment {
	font: italic 12px monospace;
}
svg.tracks g.non-terminal text {
	/&#42;font-style: italic;&#42;/
}
svg.tracks rect {
	stroke-width: 3;
	stroke: black;
	fill: hsl(120,100%,90%);
}
svg.tracks rect.group-box {
	stroke: gray;
	stroke-dasharray: 10 5;
	fill: none;
}
svg.tracks path.diagram-text {
	stroke-width: 3;
	stroke: black;
	fill: white;
	cursor: help;
}
svg.tracks g.diagram-text:hover path.diagram-text {
	fill: #eee;
}</style>
</svg>
