<svg class="tracks" width="473" height="536" viewBox="0 0 473 536" xmlns="http://www.w3.org/2000/svg" xmlns:xlink="http://www.w3.org/1999/xlink">
<g transform="translate(.5 .5)">
<g>
<path d="M40 31h0"></path>
<path d="M20 21v20m0 -10h20"></path>
</g>
<path d="M40 31h10"></path>
<path d="M50 31h10"></path>
<g>
<path d="M60 31h0"></path>
<path d="M60 31h10"></path>
<g class="terminal">
<path d="M70 31h108.25"></path>
<path d="M274.75 31h108.25"></path>
<rect x="178.25" y="20" width="96.5" height="22" rx="10" ry="10"></rect>
<text x="226.5" y="35">ignorance</text>
</g>
<path d="M383 31a10 10 0 0 1 10 10v0a10 10 0 0 1 -10 10h-313a10 10 0 0 0 -10 10v0a10 10 0 0 0 10 10"></path>
<g class="terminal">
<path d="M70 71h95.5"></path>
<path d="M287.5 71h95.5"></path>
<rect x="165.5" y="60" width="122" height="22" rx="10" ry="10"></rect>
<text x="226.5" y="75">fabrications</text>
</g>
<path d="M383 71a10 10 0 0 1 10 10v0a10 10 0 0 1 -10 10h-313a10 10 0 0 0 -10 10v0a10 10 0 0 0 10 10"></path>
<g class="terminal">
<path d="M70 111h91.25"></path>
<path d="M291.75 111h91.25"></path>
<rect x="161.25" y="100" width="130.5" height="22" rx="10" ry="10"></rect>
<text x="226.5" y="115">consciousness</text>
</g>
<path d="M383 111a10 10 0 0 1 10 10v0a10 10 0 0 1 -10 10h-313a10 10 0 0 0 -10 10v0a10 10 0 0 0 10 10"></path>
<g class="terminal">
<path d="M70 151h99.75"></path>
<path d="M283.25 151h99.75"></path>
<rect x="169.75" y="140" width="113.5" height="22" rx="10" ry="10"></rect>
<text x="226.5" y="155">name-&#38;-form</text>
</g>
<path d="M383 151a10 10 0 0 1 10 10v0a10 10 0 0 1 -10 10h-313a10 10 0 0 0 -10 10v0a10 10 0 0 0 10 10"></path>
<g class="terminal">
<path d="M70 191h82.75"></path>
<path d="M300.25 191h82.75"></path>
<rect x="152.75" y="180" width="147.5" height="22" rx="10" ry="10"></rect>
<text x="226.5" y="195">six sense media</text>
</g>
<path d="M383 191a10 10 0 0 1 10 10v0a10 10 0 0 1 -10 10h-313a10 10 0 0 0 -10 10v0a10 10 0 0 0 10 10"></path>
<g class="terminal">
<path d="M70 231h116.75"></path>
<path d="M266.25 231h116.75"></path>
<rect x="186.75" y="220" width="79.5" height="22" rx="10" ry="10"></rect>
<text x="226.5" y="235">contact</text>
</g>
<path d="M383 231a10 10 0 0 1 10 10v0a10 10 0 0 1 -10 10h-313a10 10 0 0 0 -10 10v29a10 10 0 0 0 10 10"></path>
<g>
<path d="M70 300h10"></path>
<path d="M373 489h10"></path>
<rect x="80" y="281" width="293" height="235" rx="10" ry="10" class="group-box"></rect>
<g>
<path d="M80 300h10"></path>
<path d="M90 300h10"></path>
<g class="terminal">
<path d="M100 300h86.75"></path>
<path d="M266.25 300h86.75"></path>
<rect x="186.75" y="289" width="79.5" height="22" rx="10" ry="10"></rect>
<text x="226.5" y="304">feeling</text>
</g>
<path d="M353 300a10 10 0 0 1 10 10v0a10 10 0 0 1 -10 10h-253a10 10 0 0 0 -10 10v0a10 10 0 0 0 10 10"></path>
<g class="terminal">
<path d="M100 340h86.75"></path>
<path d="M266.25 340h86.75"></path>
<rect x="186.75" y="329" width="79.5" height="22" rx="10" ry="10"></rect>
<text x="226.5" y="344">craving</text>
</g>
<path d="M353 340a10 10 0 0 1 10 10v0a10 10 0 0 1 -10 10h-253a10 10 0 0 0 -10 10v0a10 10 0 0 0 10 10"></path>
<g class="terminal">
<path d="M100 380h35.75"></path>
<path d="M317.25 380h35.75"></path>
<rect x="135.75" y="369" width="181.5" height="22" rx="10" ry="10"></rect>
<text x="226.5" y="384">clinging/sustenance</text>
</g>
<path d="M353 380a10 10 0 0 1 10 10v0a10 10 0 0 1 -10 10h-253a10 10 0 0 0 -10 10v0a10 10 0 0 0 10 10"></path>
<g class="terminal">
<path d="M100 420h82.5"></path>
<path d="M270.5 420h82.5"></path>
<rect x="182.5" y="409" width="88" height="22" rx="10" ry="10"></rect>
<text x="226.5" y="424">becoming</text>
</g>
<path d="M353 420a10 10 0 0 1 10 10v0a10 10 0 0 1 -10 10h-253a10 10 0 0 0 -10 10v29a10 10 0 0 0 10 10"></path>
<g>
<path d="M100 489h10"></path>
<path d="M343 489h10"></path>
<rect x="110" y="470" width="233" height="38" rx="10" ry="10" class="group-box"></rect>
<g>
<path d="M110 489h10"></path>
<path d="M333 489h10"></path>
<g class="terminal">
<path d="M120 489h0"></path>
<path d="M182.5 489h0"></path>
<rect x="120" y="478" width="62.5" height="22" rx="10" ry="10"></rect>
<text x="151.25" y="493">birth</text>
</g>
<path d="M182.5 489h10"></path>
<path d="M192.5 489h10"></path>
<g class="terminal">
<path d="M202.5 489h0"></path>
<path d="M333 489h0"></path>
<rect x="202.5" y="478" width="130.5" height="22" rx="10" ry="10"></rect>
<text x="267.75" y="493">aging-&#38;-death</text>
</g>
</g>
<g class="comment">
<path d="M110 459h0"></path>
<path d="M162 459h0"></path>
<text x="136" y="464" class="comment">stress</text>
</g>
</g>
<path d="M353 489h10"></path>
<path d="M363 489h10"></path>
</g>
<g class="comment">
<path d="M80 270h0"></path>
<path d="M174 270h0"></path>
<text x="127" y="275" class="comment">wondering on</text>
</g>
</g>
<path d="M383 489h10"></path>
<path d="M393 489h0"></path>
</g>
<path d="M393 489h10"></path>
<path d="M403 489h10"></path>
<g>
<path d="M413 489h0"></path>
<path d="M 413 489 h 20 m 0 -10 v 20"></path>
</g>
</g>
<style>
svg.tracks {
	background-color: none;
}
svg.tracks path {
	stroke-width: 3;
	stroke: black;
	fill: rgba(0,0,0,0);
}
svg.tracks text {
	font: bold 14px monospace;
	text-anchor: middle;
	white-space: pre;
}
svg.tracks text.diagram-text {
	font-size: 12px;
}
svg.tracks text.diagram-arrow {
	font-size: 16px;
}
svg.tracks text.label {
	text-anchor: start;
}
svg.tracks text.comment {
	font: italic 12px monospace;
}
svg.tracks g.non-terminal text {
	/&#42;font-style: italic;&#42;/
}
svg.tracks rect {
	stroke-width: 3;
	stroke: black;
	fill: hsl(120,100%,90%);
}
svg.tracks rect.group-box {
	stroke: gray;
	stroke-dasharray: 10 5;
	fill: none;
}
svg.tracks path.diagram-text {
	stroke-width: 3;
	stroke: black;
	fill: white;
	cursor: help;
}
svg.tracks g.diagram-text:hover path.diagram-text {
	fill: #eee;
}</style>
</svg>
