<svg class="tracks" width="696.5" height="92" viewBox="0 0 696.5 92" xmlns="http://www.w3.org/2000/svg" xmlns:xlink="http://www.w3.org/1999/xlink">
<g transform="translate(.5 .5)">
<g>
<path d="M40 31h0"></path>
<path d="M20 21v20m0 -10h20"></path>
</g>
<path d="M40 31h10"></path>
<path d="M50 31h10"></path>
<g class="terminal">
<path d="M60 31h0"></path>
<path d="M216 31h0"></path>
<rect x="60" y="20" width="156" height="22" rx="10" ry="10"></rect>
<text x="138" y="35">voice of another</text>
</g>
<path d="M216 31h10"></path>
<path d="M226 31h10"></path>
<g>
<path d="M236 31h0"></path>
<path d="M616.5 31h0"></path>
<path d="M236 31h20"></path>
<g>
<path d="M256 31h0"></path>
<path d="M596.5 31h0"></path>
<g class="terminal">
<path d="M256 31h0"></path>
<path d="M471.5 31h0"></path>
<rect x="256" y="20" width="215.5" height="22" rx="10" ry="10"></rect>
<text x="363.75" y="35">inappropriate attention</text>
</g>
<path d="M471.5 31h10"></path>
<path d="M481.5 31h10"></path>
<g class="terminal">
<path d="M491.5 31h0"></path>
<path d="M596.5 31h0"></path>
<rect x="491.5" y="20" width="105" height="22" rx="10" ry="10"></rect>
<text x="544" y="35">wrong view</text>
</g>
</g>
<path d="M596.5 31h20"></path>
<path d="M236 31a10 10 0 0 1 10 10v10a10 10 0 0 0 10 10"></path>
<g>
<path d="M256 61h8.5"></path>
<path d="M588 61h8.5"></path>
<g class="terminal">
<path d="M264.5 61h0"></path>
<path d="M463 61h0"></path>
<rect x="264.5" y="50" width="198.5" height="22" rx="10" ry="10"></rect>
<text x="363.75" y="65">appropriate attention</text>
</g>
<path d="M463 61h10"></path>
<path d="M473 61h10"></path>
<g class="terminal">
<path d="M483 61h0"></path>
<path d="M588 61h0"></path>
<rect x="483" y="50" width="105" height="22" rx="10" ry="10"></rect>
<text x="535.5" y="65">right view</text>
</g>
</g>
<path d="M596.5 61a10 10 0 0 0 10 -10v-10a10 10 0 0 1 10 -10"></path>
</g>
<path d="M616.5 31h10"></path>
<path d="M626.5 31h10"></path>
<g>
<path d="M636.5 31h0"></path>
<path d="M 636.5 31 h 20 m 0 -10 v 20"></path>
</g>
</g>
<style>
svg.tracks {
	background-color: none;
}
svg.tracks path {
	stroke-width: 3;
	stroke: black;
	fill: rgba(0,0,0,0);
}
svg.tracks text {
	font: bold 14px monospace;
	text-anchor: middle;
	white-space: pre;
}
svg.tracks text.diagram-text {
	font-size: 12px;
}
svg.tracks text.diagram-arrow {
	font-size: 16px;
}
svg.tracks text.label {
	text-anchor: start;
}
svg.tracks text.comment {
	font: italic 12px monospace;
}
svg.tracks g.non-terminal text {
	/&#42;font-style: italic;&#42;/
}
svg.tracks rect {
	stroke-width: 3;
	stroke: black;
	fill: hsl(120,100%,90%);
}
svg.tracks rect.group-box {
	stroke: gray;
	stroke-dasharray: 10 5;
	fill: none;
}
svg.tracks path.diagram-text {
	stroke-width: 3;
	stroke: black;
	fill: white;
	cursor: help;
}
svg.tracks g.diagram-text:hover path.diagram-text {
	fill: #eee;
}</style>
</svg>
