<svg class="tracks" width="1320" height="232" viewBox="0 0 1320 232" xmlns="http://www.w3.org/2000/svg" xmlns:xlink="http://www.w3.org/1999/xlink">
<g transform="translate(.5 .5)">
<g>
<path d="M40 31h0"></path>
<path d="M20 21v20m0 -10h20"></path>
</g>
<path d="M40 31h10"></path>
<path d="M50 31h10"></path>
<g>
<path d="M60 31h0"></path>
<path d="M1240 31h0"></path>
<path d="M60 31h10"></path>
<g>
<path d="M70 31h0"></path>
<path d="M1230 31h0"></path>
<path d="M70 31h20"></path>
<g>
<path d="M90 31h366.25"></path>
<path d="M843.75 31h366.25"></path>
<g>
<path d="M456.25 31h0"></path>
<path d="M843.75 31h0"></path>
<path d="M486.25 31h10"></path>
<g class="terminal">
<path d="M496.25 31h0"></path>
<path d="M813.75 31h0"></path>
<rect x="496.25" y="20" width="317.5" height="22" rx="10" ry="10"></rect>
<text x="655" y="35">uninstructed run-of-the-mill person</text>
</g>
<path d="M813.75 31h10"></path>
<path d="M486.25 31v20a10 10 0 0 0 10 10"></path>
<g class="terminal">
<path d="M496.25 61h17"></path>
<path d="M796.75 61h17"></path>
<rect x="513.25" y="50" width="283.5" height="22" rx="10" ry="10"></rect>
<text x="655" y="65">defiled by incoming defilements</text>
</g>
<path d="M813.75 61a10 10 0 0 0 10 -10v-20"></path>
<g class="diagram-text">
<title>take all branches, once each, in any order</title>
<path d="M 486.25 21 h -26 a 4 4 0 0 0 -4 4 v 12 a 4 4 0 0 0 4 4 h 26 z" class="diagram-text"></path>
<text x="471.25" y="35" class="diagram-text">all</text>
<path d="M 823.75 21 h 16 a 4 4 0 0 1 4 4 v 12 a 4 4 0 0 1 -4 4 h -16 z" class="diagram-text"></path>
<path d="M 830.75 29 a 4 4 0 1 0 6 -1 m 2.75 -1 h -4 v 4 m 0 -3 h 2" style="stroke-width: 1.75"></path>
</g>
</g>
</g>
<path d="M1210 31h20"></path>
<path d="M70 31a10 10 0 0 1 10 10v70a10 10 0 0 0 10 10"></path>
<g>
<path d="M90 121h0"></path>
<path d="M1210 121h0"></path>
<g>
<path d="M90 121h0"></path>
<path d="M557 121h0"></path>
<rect x="90" y="102" width="467" height="68" rx="10" ry="10" class="group-box"></rect>
<g>
<path d="M90 121h10"></path>
<path d="M547 121h10"></path>
<path d="M130 121h10"></path>
<g class="terminal">
<path d="M140 121h0"></path>
<path d="M517 121h0"></path>
<rect x="140" y="110" width="377" height="22" rx="10" ry="10"></rect>
<text x="328.5" y="125">well-instructed disciple of the noble ones</text>
</g>
<path d="M517 121h10"></path>
<path d="M130 121v20a10 10 0 0 0 10 10"></path>
<g class="terminal">
<path d="M140 151h55.25"></path>
<path d="M461.75 151h55.25"></path>
<rect x="195.25" y="140" width="266.5" height="22" rx="10" ry="10"></rect>
<text x="328.5" y="155">freed by incoming defilements</text>
</g>
<path d="M517 151a10 10 0 0 0 10 -10v-20"></path>
<g class="diagram-text">
<title>take all branches, once each, in any order</title>
<path d="M 130 111 h -26 a 4 4 0 0 0 -4 4 v 12 a 4 4 0 0 0 4 4 h 26 z" class="diagram-text"></path>
<text x="115" y="125" class="diagram-text">all</text>
<path d="M 527 111 h 16 a 4 4 0 0 1 4 4 v 12 a 4 4 0 0 1 -4 4 h -16 z" class="diagram-text"></path>
<path d="M 534 119 a 4 4 0 1 0 6 -1 m 2.75 -1 h -4 v 4 m 0 -3 h 2" style="stroke-width: 1.75"></path>
</g>
</g>
<g class="comment">
<path d="M90 91h0"></path>
<path d="M261 91h0"></path>
<text x="175.5" y="96" class="comment">development of the mind</text>
</g>
</g>
<path d="M557 121h10"></path>
<path d="M567 121h10"></path>
<g>
<path d="M577 121h0"></path>
<path d="M1210 121h0"></path>
<path d="M577 121h20"></path>
<g>
<path d="M597 121h593"></path>
</g>
<path d="M1190 121h20"></path>
<path d="M577 121a10 10 0 0 1 10 10v0a10 10 0 0 0 10 10"></path>
<g>
<path d="M597 141h0"></path>
<path d="M1190 141h0"></path>
<g>
<path d="M597 141h0"></path>
<path d="M1039.5 141h0"></path>
<path d="M597 141h20"></path>
<g class="terminal">
<path d="M617 141h153"></path>
<path d="M866.5 141h153"></path>
<rect x="770" y="130" width="96.5" height="22" rx="10" ry="10"></rect>
<text x="818.25" y="145">4th Jhana</text>
</g>
<path d="M1019.5 141h20"></path>
<path d="M597 141a10 10 0 0 1 10 10v10a10 10 0 0 0 10 10"></path>
<g class="terminal">
<path d="M617 171h0"></path>
<path d="M1019.5 171h0"></path>
<rect x="617" y="160" width="402.5" height="22" rx="10" ry="10"></rect>
<text x="818.25" y="175">cessation of perception &#38; feeling - 9th Jhana</text>
</g>
<path d="M1019.5 171a10 10 0 0 0 10 -10v-10a10 10 0 0 1 10 -10"></path>
</g>
<path d="M1039.5 141h10"></path>
<path d="M1049.5 141h10"></path>
<g class="terminal">
<path d="M1059.5 141h0"></path>
<path d="M1190 141h0"></path>
<rect x="1059.5" y="130" width="130.5" height="22" rx="10" ry="10"></rect>
<text x="1124.75" y="145">luminous mind</text>
</g>
</g>
<path d="M1190 141a10 10 0 0 0 10 -10v0a10 10 0 0 1 10 -10"></path>
</g>
</g>
<path d="M1210 121a10 10 0 0 0 10 -10v-70a10 10 0 0 1 10 -10"></path>
</g>
<path d="M1230 31h10"></path>
<path d="M70 31a10 10 0 0 0 -10 10v150a10 10 0 0 0 10 10"></path>
<g class="comment">
<path d="M70 201h487.5"></path>
<path d="M742.5 201h487.5"></path>
<text x="650" y="206" class="comment">for each conscious moment</text>
</g>
<path d="M1230 201a10 10 0 0 0 10 -10v-150a10 10 0 0 0 -10 -10"></path>
<path d="M55 118.5l5 -5l5 5"></path>
</g>
<path d="M1240 31h10"></path>
<path d="M1250 31h10"></path>
<g>
<path d="M1260 31h0"></path>
<path d="M 1260 31 h 20 m 0 -10 v 20"></path>
</g>
</g>
<style>
svg.tracks {
	background-color: none;
}
svg.tracks path {
	stroke-width: 3;
	stroke: black;
	fill: rgba(0,0,0,0);
}
svg.tracks text {
	font: bold 14px monospace;
	text-anchor: middle;
	white-space: pre;
}
svg.tracks text.diagram-text {
	font-size: 12px;
}
svg.tracks text.diagram-arrow {
	font-size: 16px;
}
svg.tracks text.label {
	text-anchor: start;
}
svg.tracks text.comment {
	font: italic 12px monospace;
}
svg.tracks g.non-terminal text {
	/&#42;font-style: italic;&#42;/
}
svg.tracks rect {
	stroke-width: 3;
	stroke: black;
	fill: hsl(120,100%,90%);
}
svg.tracks rect.group-box {
	stroke: gray;
	stroke-dasharray: 10 5;
	fill: none;
}
svg.tracks path.diagram-text {
	stroke-width: 3;
	stroke: black;
	fill: white;
	cursor: help;
}
svg.tracks g.diagram-text:hover path.diagram-text {
	fill: #eee;
}</style>
</svg>
