<svg class="tracks" width="911.5" height="242" viewBox="0 0 911.5 242" xmlns="http://www.w3.org/2000/svg" xmlns:xlink="http://www.w3.org/1999/xlink">
<g transform="translate(.5 .5)">
<g>
<path d="M40 61h0"></path>
<path d="M20 51v20m0 -10h20"></path>
</g>
<path d="M40 61h10"></path>
<path d="M50 61h10"></path>
<g>
<path d="M60 61h0"></path>
<path d="M831.5 61h0"></path>
<path d="M60 61h20"></path>
<g>
<path d="M80 61h0"></path>
<path d="M811.5 61h0"></path>
<g>
<path d="M80 61h0"></path>
<path d="M238 61h0"></path>
<path d="M110 61h10"></path>
<g class="terminal">
<path d="M120 61h12.75"></path>
<path d="M195.25 61h12.75"></path>
<rect x="132.75" y="50" width="62.5" height="22" rx="10" ry="10"></rect>
<text x="164" y="65">greed</text>
</g>
<path d="M208 61h10"></path>
<path d="M110 61v20a10 10 0 0 0 10 10"></path>
<g class="terminal">
<path d="M120 91h0"></path>
<path d="M208 91h0"></path>
<rect x="120" y="80" width="88" height="22" rx="10" ry="10"></rect>
<text x="164" y="95">aversion</text>
</g>
<path d="M208 91a10 10 0 0 0 10 -10v-20"></path>
<path d="M110 61v50a10 10 0 0 0 10 10"></path>
<g class="terminal">
<path d="M120 121h0"></path>
<path d="M208 121h0"></path>
<rect x="120" y="110" width="88" height="22" rx="10" ry="10"></rect>
<text x="164" y="125">delusoin</text>
</g>
<path d="M208 121a10 10 0 0 0 10 -10v-50"></path>
<g class="diagram-text">
<title>take one or more branches, once each, in any order</title>
<path d="M 110 51 h -26 a 4 4 0 0 0 -4 4 v 12 a 4 4 0 0 0 4 4 h 26 z" class="diagram-text"></path>
<text x="95" y="65" class="diagram-text">1+</text>
<path d="M 218 51 h 16 a 4 4 0 0 1 4 4 v 12 a 4 4 0 0 1 -4 4 h -16 z" class="diagram-text"></path>
<path d="M 225 59 a 4 4 0 1 0 6 -1 m 2.75 -1 h -4 v 4 m 0 -3 h 2" style="stroke-width: 1.75"></path>
</g>
</g>
<path d="M238 61h10"></path>
<path d="M248 61h10"></path>
<g>
<path d="M258 61h0"></path>
<path d="M366 61h0"></path>
<rect x="258" y="42" width="108" height="38" rx="10" ry="10" class="group-box"></rect>
<g class="terminal">
<path d="M258 61h10"></path>
<path d="M356 61h10"></path>
<rect x="268" y="50" width="88" height="22" rx="10" ry="10"></rect>
<text x="312" y="65">selfhood</text>
</g>
<g class="comment">
<path d="M258 31h0"></path>
<path d="M345 31h0"></path>
<text x="301.5" y="36" class="comment">accumulates</text>
</g>
</g>
<path d="M366 61h10"></path>
<path d="M376 61h10"></path>
<g class="terminal">
<path d="M386 61h0"></path>
<path d="M516.5 61h0"></path>
<rect x="386" y="50" width="130.5" height="22" rx="10" ry="10"></rect>
<text x="451.25" y="65">action ripens</text>
</g>
<path d="M516.5 61h10"></path>
<path d="M526.5 61h10"></path>
<g class="terminal">
<path d="M536.5 61h0"></path>
<path d="M811.5 61h0"></path>
<rect x="536.5" y="50" width="275" height="22" rx="10" ry="10"></rect>
<text x="674" y="65">experiences its fruit ripening</text>
</g>
</g>
<path d="M811.5 61h20"></path>
<path d="M60 61a10 10 0 0 1 10 10v70a10 10 0 0 0 10 10"></path>
<g>
<path d="M80 151h195.25"></path>
<path d="M616.25 151h195.25"></path>
<g>
<path d="M275.25 151h0"></path>
<path d="M467.25 151h0"></path>
<path d="M305.25 151h10"></path>
<g class="terminal">
<path d="M315.25 151h12.75"></path>
<path d="M424.5 151h12.75"></path>
<rect x="328" y="140" width="96.5" height="22" rx="10" ry="10"></rect>
<text x="376.25" y="155">non-greed</text>
</g>
<path d="M437.25 151h10"></path>
<path d="M305.25 151v20a10 10 0 0 0 10 10"></path>
<g class="terminal">
<path d="M315.25 181h0"></path>
<path d="M437.25 181h0"></path>
<rect x="315.25" y="170" width="122" height="22" rx="10" ry="10"></rect>
<text x="376.25" y="185">non-aversion</text>
</g>
<path d="M437.25 181a10 10 0 0 0 10 -10v-20"></path>
<path d="M305.25 151v50a10 10 0 0 0 10 10"></path>
<g class="terminal">
<path d="M315.25 211h0"></path>
<path d="M437.25 211h0"></path>
<rect x="315.25" y="200" width="122" height="22" rx="10" ry="10"></rect>
<text x="376.25" y="215">non-delusoin</text>
</g>
<path d="M437.25 211a10 10 0 0 0 10 -10v-50"></path>
<g class="diagram-text">
<title>take all branches, once each, in any order</title>
<path d="M 305.25 141 h -26 a 4 4 0 0 0 -4 4 v 12 a 4 4 0 0 0 4 4 h 26 z" class="diagram-text"></path>
<text x="290.25" y="155" class="diagram-text">all</text>
<path d="M 447.25 141 h 16 a 4 4 0 0 1 4 4 v 12 a 4 4 0 0 1 -4 4 h -16 z" class="diagram-text"></path>
<path d="M 454.25 149 a 4 4 0 1 0 6 -1 m 2.75 -1 h -4 v 4 m 0 -3 h 2" style="stroke-width: 1.75"></path>
</g>
</g>
<path d="M467.25 151h10"></path>
<path d="M477.25 151h10"></path>
<g class="comment">
<path d="M487.25 151h0"></path>
<path d="M616.25 151h0"></path>
<text x="551.75" y="156" class="comment">no future arising</text>
</g>
</g>
<path d="M811.5 151a10 10 0 0 0 10 -10v-70a10 10 0 0 1 10 -10"></path>
</g>
<path d="M831.5 61h10"></path>
<path d="M841.5 61h10"></path>
<g>
<path d="M851.5 61h0"></path>
<path d="M 851.5 61 h 20 m 0 -10 v 20"></path>
</g>
</g>
<style>
svg.tracks {
	background-color: none;
}
svg.tracks path {
	stroke-width: 3;
	stroke: black;
	fill: rgba(0,0,0,0);
}
svg.tracks text {
	font: bold 14px monospace;
	text-anchor: middle;
	white-space: pre;
}
svg.tracks text.diagram-text {
	font-size: 12px;
}
svg.tracks text.diagram-arrow {
	font-size: 16px;
}
svg.tracks text.label {
	text-anchor: start;
}
svg.tracks text.comment {
	font: italic 12px monospace;
}
svg.tracks g.non-terminal text {
	/&#42;font-style: italic;&#42;/
}
svg.tracks rect {
	stroke-width: 3;
	stroke: black;
	fill: hsl(120,100%,90%);
}
svg.tracks rect.group-box {
	stroke: gray;
	stroke-dasharray: 10 5;
	fill: none;
}
svg.tracks path.diagram-text {
	stroke-width: 3;
	stroke: black;
	fill: white;
	cursor: help;
}
svg.tracks g.diagram-text:hover path.diagram-text {
	fill: #eee;
}</style>
</svg>
