<svg class="tracks" width="662.5" height="348" viewBox="0 0 662.5 348" xmlns="http://www.w3.org/2000/svg" xmlns:xlink="http://www.w3.org/1999/xlink">
<g transform="translate(.5 .5)">
<g>
<path d="M40 61h0"></path>
<path d="M20 51v20m0 -10h20"></path>
</g>
<path d="M40 61h10"></path>
<path d="M50 61h10"></path>
<g>
<path d="M60 61h0"></path>
<path d="M582.5 61h0"></path>
<path d="M60 61h20"></path>
<g>
<path d="M80 61h26"></path>
<path d="M536.5 61h26"></path>
<g>
<path d="M106 61h0"></path>
<path d="M301 61h0"></path>
<rect x="106" y="42" width="195" height="128" rx="10" ry="10" class="group-box"></rect>
<g>
<path d="M106 61h10"></path>
<path d="M291 61h10"></path>
<path d="M146 61h10"></path>
<g class="terminal">
<path d="M156 61h21.25"></path>
<path d="M239.75 61h21.25"></path>
<rect x="177.25" y="50" width="62.5" height="22" rx="10" ry="10"></rect>
<text x="208.5" y="65">tamed</text>
</g>
<path d="M261 61h10"></path>
<path d="M146 61v20a10 10 0 0 0 10 10"></path>
<g class="terminal">
<path d="M156 91h12.75"></path>
<path d="M248.25 91h12.75"></path>
<rect x="168.75" y="80" width="79.5" height="22" rx="10" ry="10"></rect>
<text x="208.5" y="95">guarded</text>
</g>
<path d="M261 91a10 10 0 0 0 10 -10v-20"></path>
<path d="M146 61v50a10 10 0 0 0 10 10"></path>
<g class="terminal">
<path d="M156 121h4.25"></path>
<path d="M256.75 121h4.25"></path>
<rect x="160.25" y="110" width="96.5" height="22" rx="10" ry="10"></rect>
<text x="208.5" y="125">protected</text>
</g>
<path d="M261 121a10 10 0 0 0 10 -10v-50"></path>
<path d="M146 61v80a10 10 0 0 0 10 10"></path>
<g class="terminal">
<path d="M156 151h0"></path>
<path d="M261 151h0"></path>
<rect x="156" y="140" width="105" height="22" rx="10" ry="10"></rect>
<text x="208.5" y="155">restrained</text>
</g>
<path d="M261 151a10 10 0 0 0 10 -10v-80"></path>
<g class="diagram-text">
<title>take all branches, once each, in any order</title>
<path d="M 146 51 h -26 a 4 4 0 0 0 -4 4 v 12 a 4 4 0 0 0 4 4 h 26 z" class="diagram-text"></path>
<text x="131" y="65" class="diagram-text">all</text>
<path d="M 271 51 h 16 a 4 4 0 0 1 4 4 v 12 a 4 4 0 0 1 -4 4 h -16 z" class="diagram-text"></path>
<path d="M 278 59 a 4 4 0 1 0 6 -1 m 2.75 -1 h -4 v 4 m 0 -3 h 2" style="stroke-width: 1.75"></path>
</g>
</g>
<g class="comment">
<path d="M106 31h0"></path>
<path d="M291 31h0"></path>
<text x="198.5" y="36" class="comment">developed/cultivated mind</text>
</g>
</g>
<path d="M301 61h10"></path>
<path d="M311 61h10"></path>
<g class="terminal">
<path d="M321 61h0"></path>
<path d="M536.5 61h0"></path>
<rect x="321" y="50" width="215.5" height="22" rx="10" ry="10"></rect>
<text x="428.75" y="65">great benefit/happiness</text>
</g>
</g>
<path d="M562.5 61h20"></path>
<path d="M60 61a10 10 0 0 1 10 10v138a10 10 0 0 0 10 10"></path>
<g>
<path d="M80 219h0"></path>
<path d="M562.5 219h0"></path>
<g>
<path d="M80 219h0"></path>
<path d="M293 219h0"></path>
<rect x="80" y="200" width="213" height="128" rx="10" ry="10" class="group-box"></rect>
<g>
<path d="M80 219h10.5"></path>
<path d="M282.5 219h10.5"></path>
<path d="M120.5 219h10"></path>
<g class="terminal">
<path d="M130.5 219h21.25"></path>
<path d="M231.25 219h21.25"></path>
<rect x="151.75" y="208" width="79.5" height="22" rx="10" ry="10"></rect>
<text x="191.5" y="223">untamed</text>
</g>
<path d="M252.5 219h10"></path>
<path d="M120.5 219v20a10 10 0 0 0 10 10"></path>
<g class="terminal">
<path d="M130.5 249h12.75"></path>
<path d="M239.75 249h12.75"></path>
<rect x="143.25" y="238" width="96.5" height="22" rx="10" ry="10"></rect>
<text x="191.5" y="253">unguarded</text>
</g>
<path d="M252.5 249a10 10 0 0 0 10 -10v-20"></path>
<path d="M120.5 219v50a10 10 0 0 0 10 10"></path>
<g class="terminal">
<path d="M130.5 279h4.25"></path>
<path d="M248.25 279h4.25"></path>
<rect x="134.75" y="268" width="113.5" height="22" rx="10" ry="10"></rect>
<text x="191.5" y="283">unprotected</text>
</g>
<path d="M252.5 279a10 10 0 0 0 10 -10v-50"></path>
<path d="M120.5 219v80a10 10 0 0 0 10 10"></path>
<g class="terminal">
<path d="M130.5 309h0"></path>
<path d="M252.5 309h0"></path>
<rect x="130.5" y="298" width="122" height="22" rx="10" ry="10"></rect>
<text x="191.5" y="313">unrestrained</text>
</g>
<path d="M252.5 309a10 10 0 0 0 10 -10v-80"></path>
<g class="diagram-text">
<title>take all branches, once each, in any order</title>
<path d="M 120.5 209 h -26 a 4 4 0 0 0 -4 4 v 12 a 4 4 0 0 0 4 4 h 26 z" class="diagram-text"></path>
<text x="105.5" y="223" class="diagram-text">all</text>
<path d="M 262.5 209 h 16 a 4 4 0 0 1 4 4 v 12 a 4 4 0 0 1 -4 4 h -16 z" class="diagram-text"></path>
<path d="M 269.5 217 a 4 4 0 1 0 6 -1 m 2.75 -1 h -4 v 4 m 0 -3 h 2" style="stroke-width: 1.75"></path>
</g>
</g>
<g class="comment">
<path d="M80 189h0"></path>
<path d="M293 189h0"></path>
<text x="186.5" y="194" class="comment">undeveloped/uncultivated mind</text>
</g>
</g>
<path d="M293 219h10"></path>
<path d="M303 219h10"></path>
<g class="terminal">
<path d="M313 219h0"></path>
<path d="M562.5 219h0"></path>
<rect x="313" y="208" width="249.5" height="22" rx="10" ry="10"></rect>
<text x="437.75" y="223">great harm/suffering/stress</text>
</g>
</g>
<path d="M562.5 219a10 10 0 0 0 10 -10v-138a10 10 0 0 1 10 -10"></path>
</g>
<path d="M582.5 61h10"></path>
<path d="M592.5 61h10"></path>
<g>
<path d="M602.5 61h0"></path>
<path d="M 602.5 61 h 20 m 0 -10 v 20"></path>
</g>
</g>
<style>
svg.tracks {
	background-color: none;
}
svg.tracks path {
	stroke-width: 3;
	stroke: black;
	fill: rgba(0,0,0,0);
}
svg.tracks text {
	font: bold 14px monospace;
	text-anchor: middle;
	white-space: pre;
}
svg.tracks text.diagram-text {
	font-size: 12px;
}
svg.tracks text.diagram-arrow {
	font-size: 16px;
}
svg.tracks text.label {
	text-anchor: start;
}
svg.tracks text.comment {
	font: italic 12px monospace;
}
svg.tracks g.non-terminal text {
	/&#42;font-style: italic;&#42;/
}
svg.tracks rect {
	stroke-width: 3;
	stroke: black;
	fill: hsl(120,100%,90%);
}
svg.tracks rect.group-box {
	stroke: gray;
	stroke-dasharray: 10 5;
	fill: none;
}
svg.tracks path.diagram-text {
	stroke-width: 3;
	stroke: black;
	fill: white;
	cursor: help;
}
svg.tracks g.diagram-text:hover path.diagram-text {
	fill: #eee;
}</style>
</svg>
