<svg class="tracks" width="670.5" height="100" viewBox="0 0 670.5 100" xmlns="http://www.w3.org/2000/svg" xmlns:xlink="http://www.w3.org/1999/xlink">
<g transform="translate(.5 .5)">
<g>
<path d="M40 61h0"></path>
<path d="M20 51v20m0 -10h20"></path>
</g>
<path d="M40 61h10"></path>
<path d="M50 61h10"></path>
<g class="terminal">
<path d="M60 61h0"></path>
<path d="M199 61h0"></path>
<rect x="60" y="50" width="139" height="22" rx="10" ry="10"></rect>
<text x="129.5" y="65">developed mind</text>
</g>
<path d="M199 61h10"></path>
<path d="M209 61h10"></path>
<g>
<path d="M219 61h0"></path>
<path d="M590.5 61h0"></path>
<rect x="219" y="42" width="371.5" height="38" rx="10" ry="10" class="group-box"></rect>
<g class="terminal">
<path d="M219 61h10"></path>
<path d="M580.5 61h10"></path>
<rect x="229" y="50" width="351.5" height="22" rx="10" ry="10"></rect>
<text x="404.75" y="65">potential to provoke the six properties</text>
</g>
<g class="comment">
<path d="M219 31h0"></path>
<path d="M425 31h0"></path>
<text x="322" y="36" class="comment">pliant to supranormal powers</text>
</g>
</g>
<path d="M590.5 61h10"></path>
<path d="M600.5 61h10"></path>
<g>
<path d="M610.5 61h0"></path>
<path d="M 610.5 61 h 20 m 0 -10 v 20"></path>
</g>
</g>
<style>
svg.tracks {
	background-color: none;
}
svg.tracks path {
	stroke-width: 3;
	stroke: black;
	fill: rgba(0,0,0,0);
}
svg.tracks text {
	font: bold 14px monospace;
	text-anchor: middle;
	white-space: pre;
}
svg.tracks text.diagram-text {
	font-size: 12px;
}
svg.tracks text.diagram-arrow {
	font-size: 16px;
}
svg.tracks text.label {
	text-anchor: start;
}
svg.tracks text.comment {
	font: italic 12px monospace;
}
svg.tracks g.non-terminal text {
	/&#42;font-style: italic;&#42;/
}
svg.tracks rect {
	stroke-width: 3;
	stroke: black;
	fill: hsl(120,100%,90%);
}
svg.tracks rect.group-box {
	stroke: gray;
	stroke-dasharray: 10 5;
	fill: none;
}
svg.tracks path.diagram-text {
	stroke-width: 3;
	stroke: black;
	fill: white;
	cursor: help;
}
svg.tracks g.diagram-text:hover path.diagram-text {
	fill: #eee;
}</style>
</svg>
