<svg class="tracks" width="709" height="272" viewBox="0 0 709 272" xmlns="http://www.w3.org/2000/svg" xmlns:xlink="http://www.w3.org/1999/xlink">
<g transform="translate(.5 .5)">
<g>
<path d="M40 31h0"></path>
<path d="M20 21v20m0 -10h20"></path>
</g>
<path d="M40 31h10"></path>
<path d="M50 31h10"></path>
<g>
<path d="M60 31h0"></path>
<path d="M629 31h0"></path>
<path d="M60 31h20"></path>
<g>
<path d="M80 31h110.25"></path>
<path d="M498.75 31h110.25"></path>
<g class="terminal">
<path d="M190.25 31h0"></path>
<path d="M286.75 31h0"></path>
<rect x="190.25" y="20" width="96.5" height="22" rx="10" ry="10"></rect>
<text x="238.5" y="35">sacrifice</text>
</g>
<path d="M286.75 31h10"></path>
<path d="M296.75 31h10"></path>
<g>
<path d="M306.75 31h0"></path>
<path d="M498.75 31h0"></path>
<path d="M336.75 31h10"></path>
<g class="terminal">
<path d="M346.75 31h0"></path>
<path d="M468.75 31h0"></path>
<rect x="346.75" y="20" width="122" height="22" rx="10" ry="10"></rect>
<text x="407.75" y="35">complication</text>
</g>
<path d="M468.75 31h10"></path>
<path d="M336.75 31v20a10 10 0 0 0 10 10"></path>
<g class="terminal">
<path d="M346.75 61h17"></path>
<path d="M451.75 61h17"></path>
<rect x="363.75" y="50" width="88" height="22" rx="10" ry="10"></rect>
<text x="407.75" y="65">violence</text>
</g>
<path d="M468.75 61a10 10 0 0 0 10 -10v-20"></path>
<path d="M336.75 31v50a10 10 0 0 0 10 10"></path>
<g class="terminal">
<path d="M346.75 91h8.5"></path>
<path d="M460.25 91h8.5"></path>
<rect x="355.25" y="80" width="105" height="22" rx="10" ry="10"></rect>
<text x="407.75" y="95">rewardless</text>
</g>
<path d="M468.75 91a10 10 0 0 0 10 -10v-50"></path>
<g class="diagram-text">
<title>take one or more branches, once each, in any order</title>
<path d="M 336.75 21 h -26 a 4 4 0 0 0 -4 4 v 12 a 4 4 0 0 0 4 4 h 26 z" class="diagram-text"></path>
<text x="321.75" y="35" class="diagram-text">1+</text>
<path d="M 478.75 21 h 16 a 4 4 0 0 1 4 4 v 12 a 4 4 0 0 1 -4 4 h -16 z" class="diagram-text"></path>
<path d="M 485.75 29 a 4 4 0 1 0 6 -1 m 2.75 -1 h -4 v 4 m 0 -3 h 2" style="stroke-width: 1.75"></path>
</g>
</g>
</g>
<path d="M609 31h20"></path>
<path d="M60 31a10 10 0 0 1 10 10v70a10 10 0 0 0 10 10"></path>
<g>
<path d="M80 121h0"></path>
<path d="M609 121h0"></path>
<g class="terminal">
<path d="M80 121h0"></path>
<path d="M193.5 121h0"></path>
<rect x="80" y="110" width="113.5" height="22" rx="10" ry="10"></rect>
<text x="136.75" y="125">going forth</text>
</g>
<path d="M193.5 121h10"></path>
<path d="M203.5 121h10"></path>
<g>
<path d="M213.5 121h0"></path>
<path d="M609 121h0"></path>
<path d="M243.5 121h10"></path>
<g class="terminal">
<path d="M253.5 121h97.5"></path>
<path d="M481.5 121h97.5"></path>
<rect x="351" y="110" width="130.5" height="22" rx="10" ry="10"></rect>
<text x="416.25" y="125">psychic power</text>
</g>
<path d="M579 121h10"></path>
<path d="M243.5 121v20a10 10 0 0 0 10 10"></path>
<g class="terminal">
<path d="M253.5 151h114.5"></path>
<path d="M464.5 151h114.5"></path>
<rect x="368" y="140" width="96.5" height="22" rx="10" ry="10"></rect>
<text x="416.25" y="155">telepathy</text>
</g>
<path d="M579 151a10 10 0 0 0 10 -10v-20"></path>
<path d="M243.5 121v50a10 10 0 0 0 10 10"></path>
<g>
<path d="M253.5 181h0"></path>
<path d="M579 181h0"></path>
<g class="terminal">
<path d="M253.5 181h0"></path>
<path d="M367 181h0"></path>
<rect x="253.5" y="170" width="113.5" height="22" rx="10" ry="10"></rect>
<text x="310.25" y="185">instruction</text>
</g>
<path d="M367 181h10"></path>
<path d="M377 181h10"></path>
<g>
<path d="M387 181h0"></path>
<path d="M579 181h0"></path>
<path d="M417 181h10"></path>
<g class="terminal">
<path d="M427 181h8.5"></path>
<path d="M540.5 181h8.5"></path>
<rect x="435.5" y="170" width="105" height="22" rx="10" ry="10"></rect>
<text x="488" y="185">simplicity</text>
</g>
<path d="M549 181h10"></path>
<path d="M417 181v20a10 10 0 0 0 10 10"></path>
<g class="terminal">
<path d="M427 211h0"></path>
<path d="M549 211h0"></path>
<rect x="427" y="200" width="122" height="22" rx="10" ry="10"></rect>
<text x="488" y="215">harmlessness</text>
</g>
<path d="M549 211a10 10 0 0 0 10 -10v-20"></path>
<path d="M417 181v50a10 10 0 0 0 10 10"></path>
<g class="terminal">
<path d="M427 241h25.5"></path>
<path d="M523.5 241h25.5"></path>
<rect x="452.5" y="230" width="71" height="22" rx="10" ry="10"></rect>
<text x="488" y="245">reward</text>
</g>
<path d="M549 241a10 10 0 0 0 10 -10v-50"></path>
<g class="diagram-text">
<title>take one or more branches, once each, in any order</title>
<path d="M 417 171 h -26 a 4 4 0 0 0 -4 4 v 12 a 4 4 0 0 0 4 4 h 26 z" class="diagram-text"></path>
<text x="402" y="185" class="diagram-text">1+</text>
<path d="M 559 171 h 16 a 4 4 0 0 1 4 4 v 12 a 4 4 0 0 1 -4 4 h -16 z" class="diagram-text"></path>
<path d="M 566 179 a 4 4 0 1 0 6 -1 m 2.75 -1 h -4 v 4 m 0 -3 h 2" style="stroke-width: 1.75"></path>
</g>
</g>
</g>
<path d="M579 181a10 10 0 0 0 10 -10v-50"></path>
<g class="diagram-text">
<title>take one or more branches, once each, in any order</title>
<path d="M 243.5 111 h -26 a 4 4 0 0 0 -4 4 v 12 a 4 4 0 0 0 4 4 h 26 z" class="diagram-text"></path>
<text x="228.5" y="125" class="diagram-text">1+</text>
<path d="M 589 111 h 16 a 4 4 0 0 1 4 4 v 12 a 4 4 0 0 1 -4 4 h -16 z" class="diagram-text"></path>
<path d="M 596 119 a 4 4 0 1 0 6 -1 m 2.75 -1 h -4 v 4 m 0 -3 h 2" style="stroke-width: 1.75"></path>
</g>
</g>
</g>
<path d="M609 121a10 10 0 0 0 10 -10v-70a10 10 0 0 1 10 -10"></path>
</g>
<path d="M629 31h10"></path>
<path d="M639 31h10"></path>
<g>
<path d="M649 31h0"></path>
<path d="M 649 31 h 20 m 0 -10 v 20"></path>
</g>
</g>
<style>
svg.tracks {
	background-color: none;
}
svg.tracks path {
	stroke-width: 3;
	stroke: black;
	fill: rgba(0,0,0,0);
}
svg.tracks text {
	font: bold 14px monospace;
	text-anchor: middle;
	white-space: pre;
}
svg.tracks text.diagram-text {
	font-size: 12px;
}
svg.tracks text.diagram-arrow {
	font-size: 16px;
}
svg.tracks text.label {
	text-anchor: start;
}
svg.tracks text.comment {
	font: italic 12px monospace;
}
svg.tracks g.non-terminal text {
	/&#42;font-style: italic;&#42;/
}
svg.tracks rect {
	stroke-width: 3;
	stroke: black;
	fill: hsl(120,100%,90%);
}
svg.tracks rect.group-box {
	stroke: gray;
	stroke-dasharray: 10 5;
	fill: none;
}
svg.tracks path.diagram-text {
	stroke-width: 3;
	stroke: black;
	fill: white;
	cursor: help;
}
svg.tracks g.diagram-text:hover path.diagram-text {
	fill: #eee;
}</style>
</svg>
