<svg class="tracks" width="505.5" height="212" viewBox="0 0 505.5 212" xmlns="http://www.w3.org/2000/svg" xmlns:xlink="http://www.w3.org/1999/xlink">
<g transform="translate(.5 .5)">
<g>
<path d="M40 31h0"></path>
<path d="M20 21v20m0 -10h20"></path>
</g>
<path d="M40 31h10"></path>
<path d="M50 31h10"></path>
<g>
<path d="M60 31h0"></path>
<path d="M425.5 31h0"></path>
<path d="M60 31h20"></path>
<g>
<path d="M80 31h8.5"></path>
<path d="M397 31h8.5"></path>
<g>
<path d="M88.5 31h0"></path>
<path d="M323 31h0"></path>
<path d="M118.5 31h10"></path>
<g class="terminal">
<path d="M128.5 31h0"></path>
<path d="M293 31h0"></path>
<rect x="128.5" y="20" width="164.5" height="22" rx="10" ry="10"></rect>
<text x="210.75" y="35">bodily misconduct</text>
</g>
<path d="M293 31h10"></path>
<path d="M118.5 31v20a10 10 0 0 0 10 10"></path>
<g class="terminal">
<path d="M128.5 61h0"></path>
<path d="M293 61h0"></path>
<rect x="128.5" y="50" width="164.5" height="22" rx="10" ry="10"></rect>
<text x="210.75" y="65">verbal misconduct</text>
</g>
<path d="M293 61a10 10 0 0 0 10 -10v-20"></path>
<path d="M118.5 31v50a10 10 0 0 0 10 10"></path>
<g class="terminal">
<path d="M128.5 91h0"></path>
<path d="M293 91h0"></path>
<rect x="128.5" y="80" width="164.5" height="22" rx="10" ry="10"></rect>
<text x="210.75" y="95">mental misconduct</text>
</g>
<path d="M293 91a10 10 0 0 0 10 -10v-50"></path>
<g class="diagram-text">
<title>take one or more branches, once each, in any order</title>
<path d="M 118.5 21 h -26 a 4 4 0 0 0 -4 4 v 12 a 4 4 0 0 0 4 4 h 26 z" class="diagram-text"></path>
<text x="103.5" y="35" class="diagram-text">1+</text>
<path d="M 303 21 h 16 a 4 4 0 0 1 4 4 v 12 a 4 4 0 0 1 -4 4 h -16 z" class="diagram-text"></path>
<path d="M 310 29 a 4 4 0 1 0 6 -1 m 2.75 -1 h -4 v 4 m 0 -3 h 2" style="stroke-width: 1.75"></path>
</g>
</g>
<path d="M323 31h10"></path>
<path d="M333 31h10"></path>
<g class="terminal">
<path d="M343 31h0"></path>
<path d="M397 31h0"></path>
<rect x="343" y="20" width="54" height="22" rx="10" ry="10"></rect>
<text x="370" y="35">fool</text>
</g>
</g>
<path d="M405.5 31h20"></path>
<path d="M60 31a10 10 0 0 1 10 10v70a10 10 0 0 0 10 10"></path>
<g>
<path d="M80 121h0"></path>
<path d="M405.5 121h0"></path>
<g>
<path d="M80 121h0"></path>
<path d="M331.5 121h0"></path>
<path d="M110 121h10"></path>
<g class="terminal">
<path d="M120 121h0"></path>
<path d="M301.5 121h0"></path>
<rect x="120" y="110" width="181.5" height="22" rx="10" ry="10"></rect>
<text x="210.75" y="125">good bodily conduct</text>
</g>
<path d="M301.5 121h10"></path>
<path d="M110 121v20a10 10 0 0 0 10 10"></path>
<g class="terminal">
<path d="M120 151h0"></path>
<path d="M301.5 151h0"></path>
<rect x="120" y="140" width="181.5" height="22" rx="10" ry="10"></rect>
<text x="210.75" y="155">good verbal conduct</text>
</g>
<path d="M301.5 151a10 10 0 0 0 10 -10v-20"></path>
<path d="M110 121v50a10 10 0 0 0 10 10"></path>
<g class="terminal">
<path d="M120 181h0"></path>
<path d="M301.5 181h0"></path>
<rect x="120" y="170" width="181.5" height="22" rx="10" ry="10"></rect>
<text x="210.75" y="185">good mental conduct</text>
</g>
<path d="M301.5 181a10 10 0 0 0 10 -10v-50"></path>
<g class="diagram-text">
<title>take all branches, once each, in any order</title>
<path d="M 110 111 h -26 a 4 4 0 0 0 -4 4 v 12 a 4 4 0 0 0 4 4 h 26 z" class="diagram-text"></path>
<text x="95" y="125" class="diagram-text">all</text>
<path d="M 311.5 111 h 16 a 4 4 0 0 1 4 4 v 12 a 4 4 0 0 1 -4 4 h -16 z" class="diagram-text"></path>
<path d="M 318.5 119 a 4 4 0 1 0 6 -1 m 2.75 -1 h -4 v 4 m 0 -3 h 2" style="stroke-width: 1.75"></path>
</g>
</g>
<path d="M331.5 121h10"></path>
<path d="M341.5 121h10"></path>
<g class="terminal">
<path d="M351.5 121h0"></path>
<path d="M405.5 121h0"></path>
<rect x="351.5" y="110" width="54" height="22" rx="10" ry="10"></rect>
<text x="378.5" y="125">wise</text>
</g>
</g>
<path d="M405.5 121a10 10 0 0 0 10 -10v-70a10 10 0 0 1 10 -10"></path>
</g>
<path d="M425.5 31h10"></path>
<path d="M435.5 31h10"></path>
<g>
<path d="M445.5 31h0"></path>
<path d="M 445.5 31 h 20 m 0 -10 v 20"></path>
</g>
</g>
<style>
svg.tracks {
	background-color: none;
}
svg.tracks path {
	stroke-width: 3;
	stroke: black;
	fill: rgba(0,0,0,0);
}
svg.tracks text {
	font: bold 14px monospace;
	text-anchor: middle;
	white-space: pre;
}
svg.tracks text.diagram-text {
	font-size: 12px;
}
svg.tracks text.diagram-arrow {
	font-size: 16px;
}
svg.tracks text.label {
	text-anchor: start;
}
svg.tracks text.comment {
	font: italic 12px monospace;
}
svg.tracks g.non-terminal text {
	/&#42;font-style: italic;&#42;/
}
svg.tracks rect {
	stroke-width: 3;
	stroke: black;
	fill: hsl(120,100%,90%);
}
svg.tracks rect.group-box {
	stroke: gray;
	stroke-dasharray: 10 5;
	fill: none;
}
svg.tracks path.diagram-text {
	stroke-width: 3;
	stroke: black;
	fill: white;
	cursor: help;
}
svg.tracks g.diagram-text:hover path.diagram-text {
	fill: #eee;
}</style>
</svg>
