<svg class="tracks" width="740" height="92" viewBox="0 0 740 92" xmlns="http://www.w3.org/2000/svg" xmlns:xlink="http://www.w3.org/1999/xlink">
<g transform="translate(.5 .5)">
<g>
<path d="M40 31h0"></path>
<path d="M20 21v20m0 -10h20"></path>
</g>
<path d="M40 31h10"></path>
<path d="M50 31h10"></path>
<g>
<path d="M60 31h0"></path>
<path d="M272 31h0"></path>
<path d="M60 31h10"></path>
<g class="terminal">
<path d="M70 31h1"></path>
<path d="M261 31h1"></path>
<rect x="71" y="20" width="190" height="22" rx="10" ry="10"></rect>
<text x="166" y="35">no conceit obsession</text>
</g>
<path d="M262 31h10"></path>
<path d="M70 31a10 10 0 0 0 -10 10v10a10 10 0 0 0 10 10"></path>
<g class="comment">
<path d="M70 61h0"></path>
<path d="M262 61h0"></path>
<text x="166" y="66" class="comment">body &#38; all external themes</text>
</g>
<path d="M262 61a10 10 0 0 0 10 -10v-10a10 10 0 0 0 -10 -10"></path>
<path d="M55 48.5l5 -5l5 5"></path>
</g>
<path d="M272 31h10"></path>
<path d="M282 31h10"></path>
<g>
<path d="M292 31h0"></path>
<path d="M543.5 31h0"></path>
<path d="M322 31h10"></path>
<g class="terminal">
<path d="M332 31h8.5"></path>
<path d="M505 31h8.5"></path>
<rect x="340.5" y="20" width="164.5" height="22" rx="10" ry="10"></rect>
<text x="422.75" y="35">awareness release</text>
</g>
<path d="M513.5 31h10"></path>
<path d="M322 31v20a10 10 0 0 0 10 10"></path>
<g class="terminal">
<path d="M332 61h0"></path>
<path d="M513.5 61h0"></path>
<rect x="332" y="50" width="181.5" height="22" rx="10" ry="10"></rect>
<text x="422.75" y="65">discernment release</text>
</g>
<path d="M513.5 61a10 10 0 0 0 10 -10v-20"></path>
<g class="diagram-text">
<title>take all branches, once each, in any order</title>
<path d="M 322 21 h -26 a 4 4 0 0 0 -4 4 v 12 a 4 4 0 0 0 4 4 h 26 z" class="diagram-text"></path>
<text x="307" y="35" class="diagram-text">all</text>
<path d="M 523.5 21 h 16 a 4 4 0 0 1 4 4 v 12 a 4 4 0 0 1 -4 4 h -16 z" class="diagram-text"></path>
<path d="M 530.5 29 a 4 4 0 1 0 6 -1 m 2.75 -1 h -4 v 4 m 0 -3 h 2" style="stroke-width: 1.75"></path>
</g>
</g>
<path d="M543.5 31h10"></path>
<path d="M553.5 31h10"></path>
<g class="terminal">
<path d="M563.5 31h0"></path>
<path d="M660 31h0"></path>
<rect x="563.5" y="20" width="96.5" height="22" rx="10" ry="10"></rect>
<text x="611.75" y="35">unbinding</text>
</g>
<path d="M660 31h10"></path>
<path d="M670 31h10"></path>
<g>
<path d="M680 31h0"></path>
<path d="M 680 31 h 20 m 0 -10 v 20"></path>
</g>
</g>
<style>
svg.tracks {
	background-color: none;
}
svg.tracks path {
	stroke-width: 3;
	stroke: black;
	fill: rgba(0,0,0,0);
}
svg.tracks text {
	font: bold 14px monospace;
	text-anchor: middle;
	white-space: pre;
}
svg.tracks text.diagram-text {
	font-size: 12px;
}
svg.tracks text.diagram-arrow {
	font-size: 16px;
}
svg.tracks text.label {
	text-anchor: start;
}
svg.tracks text.comment {
	font: italic 12px monospace;
}
svg.tracks g.non-terminal text {
	/&#42;font-style: italic;&#42;/
}
svg.tracks rect {
	stroke-width: 3;
	stroke: black;
	fill: hsl(120,100%,90%);
}
svg.tracks rect.group-box {
	stroke: gray;
	stroke-dasharray: 10 5;
	fill: none;
}
svg.tracks path.diagram-text {
	stroke-width: 3;
	stroke: black;
	fill: white;
	cursor: help;
}
svg.tracks g.diagram-text:hover path.diagram-text {
	fill: #eee;
}</style>
</svg>
